<?xml version="1.0" encoding="utf-8"?>
<!-- Generator: Adobe Illustrator 24.2.3, SVG Export Plug-In . SVG Version: 6.00 Build 0)  -->
<svg version="1.1" id="レイヤー_1" xmlns="http://www.w3.org/2000/svg" xmlns:xlink="http://www.w3.org/1999/xlink" x="0px"
	 y="0px" viewBox="0 0 259.1 75.2" style="enable-background:new 0 0 259.1 75.2;" xml:space="preserve">
<style type="text/css">
	.st0{fill:#FFFFFF;}
	.st1{fill:#22457A;}
</style>
<g>
	<g>
		<path class="st0" d="M75.4,52.7l-6.6-1.6l-1.3-4.6l0,0l0,0l-0.4-1.3c-2.3,2.7-5,5-8,6.9l1.4-4.4c0,0,0.1,0,0.2,0
			c1.4,0,2.8-0.1,3.7-0.3l0,0c0.3-0.1,0.9-0.2,1.3-0.7c0.2-0.2,0.4-0.6,0.3-1.2c-0.2-1-1-4.4-1.9-8.2l4.4-13.5l-1-0.8
			c1.4-2.5,4.6-8.6,4.7-8.9c0.2-0.4,0.1-0.9-0.2-1.3c-0.3-0.2-0.6-0.3-1-0.2c-0.1,0-0.2,0.1-0.3,0.1c-0.2,0.2-4.3,2.9-8.3,6.6
			L39,2.1L9.2,23.5l4.2,13.2c-1,4-2,7.4-2.1,8.5c-0.1,0.5,0,1,0.2,1.2c-0.2-0.2-0.2-0.1-0.4-0.4l-0.9-1l-1.7,5.9L2,52.5l0.8,0.9l0,0
			c0.8,0.9,1.7,1.7,2.6,2.5c0.2,0.2,0.4,0.4,0.6,0.6l0,0C6.6,57,7.2,57.5,7.8,58l-2.3,2.8l0.4,0.3c9.3,7.6,21,11.7,33,11.7
			c12,0,23.6-4.1,32.9-11.7l0.4-0.3L69.9,58c0.6-0.5,1.3-1.1,1.8-1.6l0,0c1-1,2-1.9,3-3l0.5-0.5C75.4,52.8,75.4,52.8,75.4,52.7
			L75.4,52.7L75.4,52.7z M54.9,58.4C54.9,58.4,54.9,58.4,54.9,58.4c-1.6,0.7-3.3,1.4-5,1.8c0,0-0.1,0-0.1,0
			c-0.4,0.1-0.8,0.2-1.2,0.3c0,0-0.1,0-0.1,0c-1.7,0.4-3.5,0.7-5.3,0.9c0,0,0,0,0,0c-1.4,0.1-2.7,0.2-4.1,0.2c-0.9,0-1.8,0-2.7-0.1
			c0,0,0,0,0,0c-0.4,0-0.9-0.1-1.3-0.1c0,0,0,0-0.1,0c-1.8-0.2-3.5-0.5-5.2-0.9c-0.1,0-0.2,0-0.3-0.1c-0.4-0.1-0.8-0.2-1.1-0.3
			c-0.1,0-0.2,0-0.3-0.1c-1.7-0.5-3.4-1.1-5-1.7c-0.1,0-0.3-0.2-0.4-0.2l0,0L54.9,58.4C54.9,58.4,55,58.5,54.9,58.4 M59.8,56
			c-0.7,0.4-1.4,0.8-2.2,1.2l1-3.1L59.8,56z M20,57.2c-0.8-0.4-1.3-0.7-2.4-1.3l1.3-2.1L20,57.2z M12.9,47.4l0.4,0.1
			c0.9,0.2,2,0.1,3.3,0.1c0.1,0,0.1,0,0.3,0l1.5,4.6c-1.8-1.2-3.3-2.2-4.9-3.7c-0.4-0.4-1.1-1-1.5-1.5
			C12.4,47.2,12.7,47.3,12.9,47.4"/>
	</g>
	<g id="_x3C_90mm_h_x3E__1_">
		<g>
			<path class="st1" d="M98,18.6c0.5,0.1,0.8,0.3,1,0.5c0.2,0.2,0.3,0.5,0.3,0.9L99.2,36c0,1.2-0.1,2-0.2,2.6
				c-0.2,0.6-0.4,1.1-0.9,1.5c-0.8,0.8-2.1,1.2-3.9,1.2c-1.1,0-2.3-0.2-3.5-0.5c-1.2-0.3-2.2-0.7-2.9-1.2c-0.7-0.5-1-1-1-1.5
				c0-0.1,0-0.2,0-0.4l-0.6-0.2l-2.6,7l0.6,0.2c0.4-0.4,0.8-0.6,1.2-0.6c0.5,0,1.4,0.2,2.6,0.5c1.9,0.6,3.3,1,4.2,1.1
				c0.9,0.2,1.9,0.2,3,0.2c2,0,3.8-0.3,5.4-1c1.5-0.7,2.7-1.6,3.5-2.9c0.7-1.2,1.1-3.1,1.1-5.8l0.1-16.2c0-0.4,0.1-0.7,0.3-0.9
				c0.2-0.2,0.5-0.4,1-0.5l0-0.7H98L98,18.6z"/>
			<path class="st1" d="M152.9,19.8c-0.9-0.7-2-1.2-3.2-1.4c-1.2-0.3-2.8-0.4-4.8-0.4l-17.4-0.1l0,0.7c0.5,0.1,0.8,0.3,1,0.5
				c0.2,0.2,0.3,0.5,0.3,1l-0.1,23.7c0,0.4-0.1,0.7-0.3,0.9c-0.2,0.2-0.5,0.4-1,0.5l0,0.7l8.7,0l0-0.7c-0.5-0.1-0.8-0.3-1-0.5
				c-0.2-0.2-0.3-0.5-0.3-1l0-9.2l10,0c2.6,0,4.6-0.2,6-0.8c1.4-0.5,2.6-1.4,3.5-2.6c1-1.4,1.5-3.1,1.5-5c0-1.3-0.3-2.6-0.8-3.7
				C154.6,21.5,153.8,20.5,152.9,19.8z M149.2,28.2c-0.3,0.6-0.7,1-1.2,1.2c-0.8,0.4-2.1,0.6-3.9,0.6l-9.3,0l0-7.4l9.3,0
				c1.9,0,3.2,0.2,3.9,0.6c0.5,0.3,0.9,0.7,1.2,1.2c0.3,0.6,0.4,1.2,0.4,1.9C149.6,27,149.5,27.6,149.2,28.2z"/>
			<path class="st1" d="M254.1,19.8c-0.9-0.7-2-1.2-3.2-1.4c-1.2-0.3-2.8-0.4-4.8-0.4l-17.4-0.1l0,0.7c0.5,0.1,0.8,0.3,1,0.5
				c0.2,0.2,0.3,0.5,0.3,1l-0.1,23.7c0,0.4-0.1,0.7-0.3,0.9c-0.2,0.2-0.5,0.4-1,0.5l0,0.7l8.7,0l0-0.7c-0.5-0.1-0.8-0.3-1-0.5
				c-0.2-0.2-0.3-0.5-0.3-1l0-9.2l10,0c2.6,0,4.6-0.2,6-0.8c1.4-0.5,2.6-1.4,3.5-2.6c1-1.4,1.5-3.1,1.5-5c0-1.3-0.3-2.6-0.8-3.7
				C255.8,21.5,255,20.5,254.1,19.8z M250.4,28.2c-0.3,0.6-0.7,1-1.2,1.2c-0.8,0.4-2.1,0.6-3.9,0.6l-9.3,0l0-7.4l9.3,0
				c1.9,0,3.2,0.2,3.9,0.6c0.5,0.3,0.9,0.7,1.2,1.2c0.3,0.6,0.4,1.2,0.4,1.9C250.8,27,250.7,27.6,250.4,28.2z"/>
			<path class="st1" d="M187.6,42l-5.4-7.7c5.1-0.8,7.6-3.4,7.6-8c0-1.3-0.2-2.6-0.7-3.8c-0.5-1.2-1.3-2.2-2.4-2.9
				c-0.9-0.6-2-1-3.3-1.3c-1.2-0.2-2.9-0.4-5-0.4l-17.4-0.1l0,0.7c0.5,0.1,0.8,0.3,1,0.5c0.2,0.2,0.3,0.5,0.3,1l-0.1,23.6
				c0,0.4-0.1,0.7-0.3,0.9c-0.2,0.2-0.5,0.4-1,0.5l0,0.7l8.7,0l0-0.7c-0.5-0.1-0.8-0.3-1-0.5c-0.2-0.2-0.3-0.5-0.3-0.9l0-9.3l7.4,0
				l5.6,8.2c0.6,0.9,1,1.5,1,1.8c0,0.4-0.3,0.6-1,0.7l0,0.7l10.1,0l0-0.7c-0.6,0-1.2-0.3-1.6-0.7C189.2,44.2,188.5,43.4,187.6,42z
				 M180.6,29.8c-0.6,0.1-1.6,0.1-2.9,0.1l-9.4,0l0-7.3l9.4,0c1.4,0,2.4,0,2.9,0.1c0.5,0.1,1.1,0.3,1.6,0.5c1,0.6,1.5,1.6,1.5,3
				c0,1.5-0.5,2.5-1.6,3C181.7,29.5,181.2,29.7,180.6,29.8z"/>
			<path class="st1" d="M222.4,41c-0.2,0.2-0.5,0.3-0.9,0.3l-17.9-0.1l0-7.6l11.3,0c0.4,0,0.7,0.1,0.9,0.3c0.2,0.2,0.4,0.5,0.5,1
				l0.6,0l0-7l-0.6,0c-0.1,0.5-0.3,0.8-0.5,1c-0.2,0.2-0.5,0.3-0.9,0.3l-11.3,0l0-6.6l17.4,0.1c0.4,0,0.7,0.1,0.9,0.3
				c0.2,0.2,0.4,0.5,0.5,1l0.7,0l0-7.2l-0.7,0c-0.1,0.5-0.3,0.8-0.5,1c-0.2,0.2-0.5,0.3-0.9,0.3l-24.7-0.1l0,0.7
				c0.5,0.1,0.8,0.3,1,0.5c0.2,0.2,0.3,0.5,0.3,1l-0.1,23.5c0,0.4-0.1,0.7-0.3,1c-0.2,0.2-0.5,0.4-1,0.5l0,0.7l25.2,0.1
				c0.4,0,0.7,0.1,0.9,0.3c0.2,0.2,0.4,0.5,0.5,1l0.7,0l0-7.2l-0.7,0C222.8,40.4,222.6,40.8,222.4,41z"/>
		</g>
		<g>
			<path class="st1" d="M75.5,52.7l-6.6-1.6l0,0l-1.3-4.6c0,0,0,0,0,0l-0.4-1.3c-2.3,2.7-5,5-8,6.9l1.5-4.4c-0.3,0-0.5,0-0.8,0
				c-0.3,0-0.5,0-0.8-0.1l-3.1,9.3l-34.6-0.1L20,52.2l-1.1-3.3l-0.5-1.4c0,0,0,0,0,0c-0.2,0-0.5,0-0.7,0.1c-0.2,0-0.5,0-0.8,0
				l1.5,4.6c-1.8-1.2-3.6-2.5-5.1-3.9c-0.4-0.4-0.8-0.8-1.2-1.2c-0.2-0.1-0.3-0.2-0.5-0.4c0,0-0.1-0.1-0.1-0.2
				c-0.2-0.2-0.4-0.4-0.6-0.6l-0.7-0.8l-1.7,5.9L2,52.5L2.5,53l0,0C3.3,54,4.1,54.8,5,55.7c0.2,0.2,0.4,0.4,0.6,0.6l0,0
				c0.6,0.5,1.2,1.1,1.8,1.6l-2.3,2.8l0.4,0.4c9.3,7.6,21,11.8,33.1,11.9c12.1,0,23.8-4.1,33.2-11.6l0.4-0.3L70,58
				c0.6-0.5,1.2-1,1.8-1.6l0,0c1.1-1,2.1-2,3-3.1l0.5-0.5C75.4,52.8,75.4,52.8,75.5,52.7L75.5,52.7L75.5,52.7z M58.6,54.1l1.2,1.9
				c-0.2,0.1-0.3,0.2-0.5,0.3c-0.5,0.3-0.9,0.5-1.4,0.7c-0.1,0.1-0.2,0.1-0.3,0.2L58.6,54.1z M54.9,58.4c-0.6,0.2-1.1,0.5-1.7,0.7
				c-0.6,0.2-1.1,0.4-1.7,0.6c-0.7,0.2-1.4,0.4-2.1,0.6c-0.5,0.1-0.9,0.2-1.4,0.3c-0.6,0.1-1.1,0.3-1.7,0.4c-0.5,0.1-1,0.2-1.5,0.2
				c-0.6,0.1-1.1,0.1-1.7,0.2c-0.5,0.1-1,0.1-1.5,0.1c-0.7,0-1.3,0.1-2,0.1c-0.4,0-0.7,0-1.1,0c-0.3,0-0.7,0-1,0c-0.7,0-1.3,0-2-0.1
				c-0.5,0-1-0.1-1.4-0.2c-0.6-0.1-1.1-0.1-1.7-0.2c-0.5-0.1-1-0.2-1.4-0.2c-0.6-0.1-1.2-0.2-1.7-0.4c-0.4-0.1-0.9-0.2-1.3-0.3
				c-0.8-0.2-1.5-0.4-2.3-0.7c-0.5-0.2-0.9-0.3-1.4-0.5c-0.6-0.2-1.2-0.5-1.9-0.7L54.9,58.4z M18.9,53.8l1.1,3.4
				c-0.2-0.1-0.4-0.2-0.6-0.3c-0.4-0.2-0.9-0.5-1.3-0.7c-0.2-0.1-0.3-0.2-0.5-0.3L18.9,53.8z M6.2,55.3C6.1,55.2,6.1,55.2,6.2,55.3
				c-0.8-0.7-1.5-1.4-2.1-2.1l3.2-0.8l2.2-0.5l0,0l0.1-0.2l1.2-4.3c0.1,0.1,0.2,0.2,0.3,0.3c0.3,0.3,0.5,0.5,0.8,0.8
				c0.1,0.1,0.1,0.1,0.2,0.2c0.2,0.2,0.4,0.4,0.6,0.6c0.2,0.2,0.4,0.4,0.6,0.5l0,0c0.1,0.1,0.1,0.1,0.2,0.2c0.2,0.2,0.5,0.4,0.7,0.6
				c0.8,0.7,1.6,1.3,2.5,1.9L12.2,52h0v0l-4.1,5C7.4,56.4,6.8,55.8,6.2,55.3z M70.7,60.6C70.7,60.6,70.7,60.6,70.7,60.6
				c-9.1,7.2-20.4,11.1-32,11c-11.6,0-22.9-4-32-11.3c0,0,0,0,0,0l5.7-6.8c7.4,5.9,16.8,9.2,26.3,9.2c9.6,0,18.9-3.2,26.4-9.1
				L70.7,60.6z M73.1,53.7C73.1,53.7,73.1,53.7,73.1,53.7c-0.3,0.3-0.6,0.6-0.8,0.8c-0.2,0.2-0.4,0.4-0.7,0.6
				c-0.7,0.7-1.5,1.4-2.3,2l-2.2-2.6l-1.9-2.3l0,0l0,0l-4.4,0.3c0.6-0.4,1.2-0.8,1.8-1.3c0.3-0.3,0.6-0.5,1-0.8
				c0.2-0.2,0.5-0.4,0.7-0.6l0,0c0.6-0.6,1.2-1.1,1.8-1.7c0,0,0,0,0,0c0,0,0,0,0,0c0,0,0,0,0,0c0.2-0.2,0.4-0.4,0.6-0.6L68,52
				l5.4,1.3l0,0C73.3,53.5,73.2,53.6,73.1,53.7z"/>
			<path class="st1" d="M13.8,35.4c0.1-0.4,0.2-0.9,0.4-1.3l-3.2-9.9L39,4l22.4,16.3c0.2-0.2,0.4-0.3,0.6-0.5
				c0.2-0.2,0.4-0.3,0.6-0.5L39,2.2L9.2,23.5l4.3,13.2C13.5,36.3,13.7,35.8,13.8,35.4"/>
			<path class="st1" d="M68.6,23.7L67.5,23c-0.1,0.2-0.2,0.4-0.3,0.5c0,0-0.1,0.1-0.1,0.1c-0.1,0.2-0.3,0.4-0.4,0.6l0.1,0.1
				l-3.4,10.3c0.1,0.4,0.2,0.9,0.3,1.3c0.1,0.5,0.2,0.9,0.3,1.3l4.3-13.1L68.6,23.7z"/>
			<path class="st1" d="M57.8,65.6L57.8,65.6c-0.1,0-0.2,0-0.3,0c-0.1,0-0.2-0.1-0.4-0.3l-1.1-0.8c0.7-0.4,0.9-0.9,0.6-1.6
				c-0.1-0.2-0.2-0.4-0.3-0.5c-0.1-0.2-0.3-0.3-0.5-0.3c-0.2,0-0.4-0.1-0.5,0c-0.2,0-0.4,0.1-0.7,0.2l-2.5,0.9l0.1,0.2l0,0
				c0.1,0,0.1,0,0.2,0c0,0,0.1,0.1,0.1,0.1l1.3,3.5c0,0.1,0,0.1,0,0.1c0,0,0,0.1-0.1,0.1l0,0l0.1,0.2l1.3-0.5l-0.1-0.2l0,0
				c-0.1,0-0.1,0-0.1,0c0,0-0.1-0.1-0.1-0.1L54,65.3l1-0.4l1.2,0.9c0.2,0.1,0.2,0.2,0.2,0.2c0,0,0,0.1-0.1,0.1l0,0l0.1,0.2l1.5-0.5
				L57.8,65.6z M55.6,63.8c-0.1,0.1-0.1,0.1-0.2,0.1c-0.1,0-0.2,0.1-0.4,0.2l-1.3,0.5l-0.4-1l1.3-0.5C54.8,63,55,63,55,62.9
				c0.1,0,0.2,0,0.2,0c0.2,0,0.3,0.1,0.4,0.3C55.7,63.5,55.7,63.6,55.6,63.8z"/>
			<path class="st1" d="M52.3,67.5L52.3,67.5c-0.1,0-0.2,0-0.2,0c-0.1,0-0.1-0.1-0.2-0.2l-2.3-2.9c-0.1-0.1-0.1-0.1-0.1-0.2
				c0,0,0-0.1,0.1-0.2l0,0l0-0.2L48,64.2l0,0.2l0,0c0.1,0,0.2,0.1,0.2,0.1c0,0.1,0,0.1,0,0.3l-0.8,3.6c0,0.1-0.1,0.2-0.1,0.3
				c0,0-0.1,0.1-0.1,0.1l0,0l0,0.2l1.4-0.3l0-0.2l0,0c-0.2,0-0.2-0.1-0.2-0.1c0,0,0-0.1,0-0.2l0.1-0.6l1.8-0.4l0.4,0.5
				c0.1,0.1,0.1,0.1,0.1,0.2c0,0.1,0,0.1-0.1,0.2l0,0l0,0.2l1.6-0.4L52.3,67.5z M48.7,66.7l0.3-1.5l0.9,1.2L48.7,66.7z"/>
			<path class="st1" d="M16.5,63.9c0,0,0-0.1,0-0.1l1.7-3.3c0,0,0.1-0.1,0.1-0.1c0,0,0.1,0,0.2,0l0,0l0.1-0.1l-1.2-0.6l-0.1,0.1l0,0
				c0,0,0.1,0.1,0.1,0.1c0,0,0,0.1,0,0.1l-1.7,3.3c0,0-0.1,0.1-0.1,0.1c0,0-0.1,0-0.2,0l0,0l-0.1,0.1l1.2,0.6l0.1-0.1l0,0
				C16.6,64,16.5,64,16.5,63.9"/>
			<path class="st1" d="M44.7,68.2L44.7,68.2c0,0.1,0,0.1-0.1,0.2c0,0-0.1,0-0.1,0L42,68.6l-0.3-3.3c0-0.1,0-0.1,0-0.1
				c0,0,0.1-0.1,0.1-0.1l0,0l0-0.2l-1.4,0.1l0,0.2l0,0c0.1,0,0.1,0,0.1,0.1s0,0.1,0,0.1l0.3,3.7c0,0.1,0,0.1,0,0.1
				c0,0-0.1,0.1-0.1,0.1l0,0l0,0.2l3.7-0.3c0.1,0,0.1,0,0.1,0c0,0,0.1,0.1,0.1,0.1l0,0l0.2,0l-0.1-1.2L44.7,68.2z"/>
			<path class="st1" d="M23.5,62.7c-0.1-0.1-0.2-0.3-0.3-0.4c-0.1-0.1-0.3-0.2-0.6-0.3L19.9,61l-0.1,0.2l0,0c0.1,0,0.1,0.1,0.1,0.1
				c0,0,0,0.1,0,0.1l-1.4,3.4c0,0.1,0,0.1-0.1,0.1c0,0-0.1,0-0.2,0l0,0l-0.1,0.2l2.7,1.1c0.3,0.1,0.5,0.2,0.7,0.2c0.1,0,0.1,0,0.2,0
				c0.1,0,0.3,0,0.4-0.1c0.3-0.1,0.6-0.4,0.8-0.7c0.2-0.5,0.1-0.9-0.2-1.2c0.4-0.1,0.7-0.3,0.8-0.7C23.6,63.4,23.6,63,23.5,62.7z
				 M21.9,65.1c-0.1,0.2-0.2,0.3-0.4,0.3c-0.1,0-0.3,0-0.6-0.1l-1.4-0.6l0.4-1l1.4,0.6c0.3,0.1,0.4,0.2,0.5,0.3
				C22,64.8,22,65,21.9,65.1z M22.5,63.4c-0.1,0.2-0.2,0.2-0.3,0.3c-0.1,0-0.3,0-0.5-0.1L20.3,63l0.4-0.9l1.5,0.6
				c0.2,0.1,0.4,0.2,0.4,0.3C22.6,63.1,22.6,63.3,22.5,63.4z"/>
			<path class="st1" d="M14.6,62.1c-0.1,0-0.1,0.1-0.1,0.1c0,0-0.1,0-0.1,0l-2.1-1.4l1.8-2.8c0,0,0.1-0.1,0.1-0.1c0,0,0.1,0,0.2,0
				l0,0l0.1-0.1l-1.2-0.7l-0.1,0.1l0,0c0,0.1,0.1,0.1,0.1,0.1c0,0,0,0.1,0,0.1l-2,3.1c0,0-0.1,0.1-0.1,0.1c0,0-0.1,0-0.2,0l0,0
				l-0.1,0.1l3.2,2c0,0,0.1,0.1,0.1,0.1c0,0,0,0.1,0,0.2l0,0l0.1,0.1l0.6-1L14.6,62.1L14.6,62.1z"/>
			<path class="st1" d="M39.9,69.4c-0.1,0-0.1-0.1-0.2-0.1c0,0-0.1-0.1-0.2-0.3L38,65.6c0-0.1-0.1-0.1,0-0.2c0,0,0-0.1,0.2-0.1l0,0
				l0-0.2l-1.6,0l0,0.2l0,0c0.1,0,0.2,0.1,0.1,0.2c0,0.1,0,0.1-0.1,0.2L35,69c-0.1,0.1-0.1,0.2-0.1,0.2c0,0-0.1,0.1-0.2,0.1l0,0
				l0,0.2l1.5,0l0-0.2l0,0C36,69.2,36,69.2,36,69.1c0,0,0-0.1,0.1-0.2l0.3-0.6l1.9,0.1l0.3,0.6c0,0.1,0.1,0.2,0.1,0.2
				c0,0.1,0,0.1-0.2,0.2l0,0l0,0.2l1.6,0.1L39.9,69.4L39.9,69.4z M36.6,67.7l0.7-1.4l0.6,1.4L36.6,67.7z"/>
			<path class="st1" d="M34.1,66.3c0-0.2,0-0.4,0-0.6c-0.1-0.2-0.2-0.4-0.3-0.5c-0.1-0.1-0.3-0.2-0.5-0.3c-0.2-0.1-0.4-0.1-0.8-0.2
				l-2.6-0.4l0,0.2l0,0c0.1,0,0.1,0.1,0.1,0.1c0,0,0,0.1,0,0.1l-0.6,3.6c0,0.1,0,0.1-0.1,0.1c0,0-0.1,0-0.1,0l0,0l0,0.2l1.4,0.2
				l0-0.2l0,0c-0.1,0-0.1-0.1-0.1-0.1c0,0,0-0.1,0-0.1l0.2-1.4l1.1,0.2l0.6,1.4c0.1,0.2,0.1,0.3,0.1,0.3c0,0-0.1,0.1-0.1,0.1l0,0
				l0,0.2l1.6,0.2l0-0.2l0,0c-0.1,0-0.2-0.1-0.2-0.1c-0.1-0.1-0.1-0.2-0.2-0.4l-0.6-1.3C33.6,67.3,34,67,34.1,66.3z M32.9,66.5
				c-0.1,0-0.2,0-0.2,0c-0.1,0-0.2,0-0.4,0l-1.4-0.2l0.2-1.1l1.4,0.2c0.2,0,0.4,0.1,0.4,0.1c0.1,0,0.1,0.1,0.2,0.1
				c0.1,0.1,0.2,0.3,0.1,0.5C33.1,66.3,33,66.4,32.9,66.5z"/>
			<path class="st1" d="M61.2,64c-0.1,0-0.1,0-0.2,0c0,0-0.1,0-0.1-0.1l-1.5-2.9l1.1-0.6c0,0,0.1,0,0.1,0c0,0,0.1,0,0.1,0.1l0,0
				l0.1-0.1l-0.5-1.1l-0.1,0.1l0,0c0,0.1,0,0.1,0,0.2c0,0,0,0.1-0.1,0.1l-3.2,1.6c0,0-0.1,0-0.1,0c0,0-0.1,0-0.1-0.1l0,0l-0.1,0.1
				l0.5,1.1l0.1-0.1l0,0c0-0.1,0-0.1,0-0.2c0,0,0-0.1,0.1-0.1l1.1-0.6l1.5,2.9c0,0.1,0,0.1,0,0.1c0,0,0,0.1-0.1,0.1l0,0l0.1,0.1
				l1.2-0.6L61.2,64L61.2,64z"/>
			<path class="st1" d="M28.8,63.8c0,0.1-0.1,0.1-0.1,0.1c0,0-0.1,0-0.1,0l-3.6-1l0,0.2l0,0c0.1,0,0.1,0.1,0.1,0.1c0,0,0,0.1,0,0.1
				l-1,3.5c0,0.1,0,0.1-0.1,0.1c0,0-0.1,0-0.2,0l0,0l0,0.2l3.7,1c0,0,0.1,0,0.1,0.1c0,0,0,0.1,0,0.2l0,0l0.2,0l0.3-1.2l-0.2,0l0,0
				c0,0.1-0.1,0.1-0.1,0.1c0,0-0.1,0-0.1,0l-2.6-0.7l0.3-1.1l1.6,0.4c0,0,0.1,0,0.1,0.1c0,0,0,0.1,0,0.2l0,0l0.2,0l0.3-1.1l-0.2,0
				l0,0c0,0.1-0.1,0.1-0.1,0.1c0,0-0.1,0-0.1,0l-1.6-0.4l0.3-0.9l2.5,0.7c0,0,0.1,0,0.1,0.1c0,0,0,0.1,0,0.2l0,0l0.2,0l0.3-1.2
				L28.8,63.8L28.8,63.8z"/>
			<path class="st1" d="M64.2,59.3l-0.4,0.2c-0.3,0.1-0.5,0.2-0.6,0.3c-0.2,0-0.3,0-0.4-0.1c0-0.1-0.1-0.2,0-0.3
				c0-0.1,0.1-0.2,0.1-0.3c0.1-0.1,0.3-0.3,0.4-0.4c0.4-0.2,0.8-0.4,1.2-0.4c0,0,0.1,0,0.1,0c0.1,0,0.2,0,0.2,0.1l0,0l0,0l0.2,0
				l-0.1-1.2l-0.2,0l0,0c0,0.1,0,0.1-0.1,0.1c0,0,0,0-0.2,0.1c-0.4,0.1-0.7,0.1-0.9,0.2c-0.2,0.1-0.5,0.2-0.7,0.3
				c-0.5,0.3-0.9,0.8-1,1.2c-0.1,0.3,0,0.7,0.2,1c0.1,0.2,0.3,0.3,0.5,0.4c0.2,0.1,0.4,0.1,0.6,0.1c0.1,0,0.3,0,0.4-0.1
				c0.1,0,0.3-0.1,0.6-0.3l0.4-0.2c0.3-0.1,0.5-0.2,0.6-0.2c0.1,0,0.2,0,0.3,0.1c0,0.1,0.1,0.2,0.1,0.3c0,0.1,0,0.2-0.1,0.3
				c-0.1,0.2-0.3,0.3-0.5,0.5c-0.2,0.1-0.5,0.2-0.7,0.3c-0.3,0.1-0.5,0.1-0.7,0.1c-0.1,0-0.2-0.1-0.2-0.1l0-0.1l-0.2,0l0.2,1.2
				l0.2,0l0,0c0-0.1,0-0.1,0.1-0.1c0,0,0,0,0.2,0c0.6-0.1,1.2-0.2,1.6-0.5c0.3-0.2,0.5-0.4,0.7-0.6c0.3-0.3,0.4-0.6,0.4-0.9
				c0-0.3,0-0.6-0.2-0.9c-0.1-0.2-0.2-0.3-0.4-0.4C65.7,59,65.6,59,65.4,59c-0.2,0-0.4,0-0.5,0.1C64.7,59.1,64.4,59.2,64.2,59.3"/>
			<path class="st1" d="M59.1,46.7c0.1,0,0.2,0,0.4,0c0.2,0,0.5,0,0.8,0c0.3,0,0.5,0,0.8,0c1.2,0,2.5-0.1,3.4-0.3
				c0.3-0.1,0.8-0.1,0.7-0.8c-0.1-0.9-0.8-3.5-1.6-6.6c-0.1-0.4-0.2-0.9-0.3-1.3c-0.1-0.4-0.2-0.9-0.3-1.3c-0.3-1-0.5-2.1-0.8-3.1
				c-0.3-1.1-0.6-2.2-0.9-3.3c-0.3,0.1-0.6,0.3-1,0.4c0,0,0,0,0,0c0.4,1.7,0.8,3.4,1.2,5.1c0.3,1.2,0.5,2.3,0.7,3.3
				c0.1,0.5,0.2,1,0.3,1.4c0.1,0.5,0.2,1,0.3,1.4c0.2,0.9,0.3,1.6,0.4,1.8c0.1,0.4,0,0.8-0.2,1c-0.3,0.3-0.8,0.5-1.3,0.5
				c-0.3,0-0.5,0-0.8,0c-0.2,0-0.4,0-0.5,0c-0.1,0-0.2,0-0.2,0c0,0,0,0,0,0c-0.3,0-0.6,0-1,0c-0.3,0-0.5-0.1-0.8-0.1
				c-2.1-0.3-4.3-1.3-6.2-1.9c0,0,0,0,0,0c-0.7-0.2-1.3-0.4-1.8-0.5c-1.6-0.4-2.9-0.7-4.8-0.7c-1,0-1.9,0.1-2.6,0.4
				c-0.2,0.1-0.5,0.2-0.7,0.3c-0.4,0.2-0.7,0.5-1.1,0.8c-0.3,0.3-0.6,0.6-0.9,1c0,0-0.1,0.1-0.1,0.1l-0.5,0l-2.1,0
				c0,0-0.1-0.1-0.1-0.1c0-0.1-0.1-0.1-0.1-0.2c-0.8-1-1.6-1.6-2.5-1.9c-0.8-0.3-1.6-0.4-2.6-0.4c-2.5,0-4,0.4-6.6,1.2
				c-1.9,0.5-4.1,1.5-6.2,1.8c-0.3,0-0.6,0.1-0.9,0.1c-0.3,0-0.5,0-0.7,0c-0.1,0-0.2,0-0.3,0c-0.1,0-0.1,0-0.2,0c-0.1,0-0.2,0-0.3,0
				c-0.2,0-0.5,0-0.8,0c-0.6,0-1.2-0.2-1.5-0.6c-0.2-0.3-0.3-0.6-0.2-1.1c0.1-0.3,0.2-1.1,0.5-2.3c0.1-0.4,0.2-0.9,0.3-1.4
				c0.1-0.4,0.2-0.9,0.3-1.4c0.2-0.9,0.4-1.9,0.7-2.9c0.4-1.9,0.9-3.8,1.4-5.7c0.1-0.3,0.1-0.5,0.2-0.8c0.1-0.3,0.1-0.6,0.2-0.9
				c0.4-1.8,0.8-3.4,1.1-4.7c-0.3,0-0.6,0.1-0.7,0.1c-0.3,0-0.3,0.2-0.4,0.5c0,0.1-0.4,1.4-0.9,3.5c-0.1,0.5-0.3,1.1-0.4,1.7
				c-0.3,1.3-0.7,2.7-1.1,4.2c-0.2,0.9-0.5,1.8-0.7,2.8c-0.1,0.4-0.2,0.9-0.4,1.3c-0.1,0.5-0.2,0.9-0.4,1.3
				c-0.9,3.3-1.6,6.2-1.7,7.1c-0.1,0.6,0.4,0.7,0.7,0.8c0.9,0.2,2.3,0.3,3.6,0.3c0.3,0,0.5,0,0.8,0c0.3,0,0.5,0,0.8,0
				c0,0,0.1,0,0.1,0c0.5-0.1,1-0.1,1.4-0.2c4.1-0.9,7.5-3.2,12.7-3.4c1.9-0.1,3.9,0.5,3.9,1.4c0,0.1-0.1,0.3-0.3,0.5
				c-0.1,0.2-0.2,0.3-0.3,0.4c-0.1,0.1-0.1,0.3,0.2,0.3l1.8,0l3.5,0c0.3,0,0.3-0.1,0.2-0.3c-0.1-0.1-0.5-0.7-0.5-0.9
				c0-0.9,2-1.5,3.9-1.4c2.2,0.1,4,0.5,5.8,1.1c0.6,0.2,1.3,0.4,1.9,0.7c1.7,0.6,3.4,1.3,5.1,1.7C58.2,46.6,58.6,46.6,59.1,46.7"/>
			<path class="st1" d="M62.3,42.9c-0.1-0.3-0.2-0.8-0.3-1.4c-0.1-0.4-0.2-0.9-0.3-1.4c-0.2-1-0.5-2.1-0.8-3.3
				c-0.4-1.9-1-4.1-1.4-6.2c-0.2,0.1-0.4,0.1-0.6,0.2c-0.3,0.1-0.5,0.2-0.7,0.2l1.8,8.8l0.5,2.7c0,0-0.4,0.1-1.5,0.1
				c-0.1,0-0.1,0-0.1,0c-2.6-0.1-4.9-1.5-7.8-2.6c-0.6-0.2-1.2-0.4-1.8-0.6c-0.8-0.2-1.6-0.3-2.4-0.4c-0.5-0.1-1-0.1-1.6-0.1
				c-2.5,0-5.1,1.3-5.9,1.9l0.1-17.2l0-1.3l0-0.7c0.2-0.1,0.5-0.2,0.7-0.3c0.7-0.3,1.5-0.6,2.4-0.9c0.8-0.3,1.6-0.5,2.3-0.5
				c3.3-0.3,6.5,1.1,11.5,1.9l0,0l0.2,1.2l0.1,0.6l0.1,0.5l0.2,1c0.2-0.3,0.4-0.6,0.7-0.9c0.1-0.1,0.2-0.3,0.3-0.4
				c0-0.1,0-0.2-0.1-0.2c0-0.2-0.1-0.3-0.1-0.5c-0.1-0.5-0.2-0.8-0.3-1.2c-0.2-0.7-0.3-1.1-0.3-1.1l-0.4-0.1
				c-0.4-0.1-9.2-2.1-11-2.1c-1.7,0-3.4,0.5-5.5,1.5c-0.4,0.2-0.8,0.4-1.2,0.6l-0.1,0l-0.1,0c-0.4-0.2-0.8-0.4-1.2-0.6
				c-0.9-0.4-1.7-0.7-2.4-1c-0.5-0.2-1-0.3-1.5-0.4c-0.5-0.1-1.1-0.1-1.6-0.1c-1.9,0-10.7,1.9-11.1,2l-0.4,0.1c0,0-0.1,0.4-0.3,1.1
				c-0.1,0.3-0.2,0.7-0.3,1.2c-0.1,0.4-0.2,0.7-0.3,1.2c-0.3,1.2-0.6,2.6-1,4c-0.1,0.6-0.3,1.1-0.4,1.7c-0.5,2.2-1.1,4.5-1.6,6.6
				c-0.2,1-0.5,2-0.7,2.9c-0.1,0.5-0.2,1-0.3,1.4c-0.1,0.6-0.2,1-0.3,1.4c-0.1,0.5-0.2,0.9-0.2,1c-0.1,0.6,0.3,0.8,0.8,0.9
				c0.3,0,0.5,0.1,0.8,0.1c0.2,0,0.5,0,0.7,0c0,0,0.1,0,0.1,0c0.5,0,1-0.1,1.6-0.2c3.6-0.8,8.4-3.4,12.5-3.4c0.3,0,1.1,0.1,1.5,0.1
				c0.1,0,0.2,0,0.2,0c2.7,0.5,4.2,2.5,4.2,2.6l0.2,0.3l1,0l0,0h0h0l1,0l0.2-0.3c0-0.1,1.6-2.1,4.2-2.6c0.1,0,0.2,0,0.3,0
				c0.4,0,1.2-0.1,1.5-0.1c1.3,0,2.6,0.3,3.9,0.6c0.6,0.2,1.2,0.4,1.9,0.6c2.4,0.8,4.8,1.9,6.8,2.3c0.6,0.1,1.1,0.2,1.6,0.2
				c0,0,0.1,0,0.1,0c0.2,0,0.5,0,0.8,0c0.3,0,0.6-0.1,0.8-0.1c0.4-0.1,0.6-0.4,0.6-0.8C62.4,43.3,62.3,43.1,62.3,42.9z M38.2,22.4
				l0,1.3l0,17.2c-0.9-0.6-3.4-1.9-5.9-2c-0.5,0-1,0.1-1.5,0.1c-5.3,0.5-8.4,3.3-12.1,3.5c0,0,0,0-0.1,0c-1.2,0-1.5-0.1-1.5-0.1
				l0.6-2.8l1.8-8.7l0.4-1.7l1-5L21,23l0.2-1.2l0,0c5.1-0.8,8.3-2.2,11.5-1.9c0.1,0,0.2,0,0.3,0c0.5,0.1,1,0.2,1.6,0.4
				c0.1,0,0.3,0.1,0.4,0.1c0.9,0.3,1.7,0.6,2.4,0.9c0.3,0.1,0.5,0.2,0.7,0.4L38.2,22.4z"/>
			<path class="st1" d="M63.3,19.9c-0.2,0.2-0.4,0.3-0.6,0.5c-0.2,0.2-0.4,0.3-0.6,0.5c-0.4,0.4-0.8,0.8-1.2,1.2
				c-0.3,0.3-0.5,0.5-0.7,0.8c-0.3,0.3-0.5,0.6-0.8,0.9c0,0,0,0,0,0c0,0-0.1,0.1-0.1,0.1c-0.2,0.2-0.4,0.5-0.6,0.7
				c0,0-0.1,0.1-0.1,0.1c-0.2,0.2-0.3,0.4-0.5,0.6c0,0,0,0,0,0c-0.3,0.4-0.6,0.9-0.9,1.3c-3.1,4.6-5,9.9-5,9.9
				c0.7-0.6,3.7-5,4.1-5.7c0.2-0.4,0.9-0.6,1.6-0.9c0.4-0.1,0.9-0.3,1.3-0.4c0.2-0.1,0.4-0.1,0.6-0.2c0,0,0.1,0,0.1,0c0,0,0,0,0,0
				c0.4-0.1,0.7-0.2,1-0.4c0.3-0.2,0.7-0.4,0.9-0.6c0.4-0.3,0.8-0.6,1.1-0.9c0.4-0.4,1-1.2,1.7-2c0.4-0.6,0.9-1.2,1.3-1.9
				c0.1-0.2,0.3-0.4,0.4-0.6c0,0,0,0,0-0.1c0.1-0.2,0.2-0.4,0.3-0.6c1.5-2.5,4.8-8.8,4.8-8.8S67.4,16.2,63.3,19.9z M70.4,14.8
				c-0.5,0.9-1.1,2.1-1.8,3.4L65,20.7l-0.3,0.2L64.6,21l0.1-0.1l0.1,0l3-1.4c-0.3,0.5-0.5,0.9-0.7,1.3l-1.3,0.9l-0.7,0.4l-0.7,0.4
				l-1.4,1l-0.2,0.1l-1.4,1l3.6-1.6l0.8-0.4l0.2-0.1c0,0-0.1,0.1-0.1,0.1c0,0,0,0,0,0c-0.1,0.2-0.3,0.4-0.4,0.6
				c-0.1,0.2-0.3,0.4-0.4,0.6l-2,1.3l-1.9,1.3l-0.9,0.6l-0.9,0.6l0,0L59.2,28l0.3-0.1l0,0l1-0.4l1-0.4l2.1-0.8
				c-0.3,0.4-0.6,0.7-0.8,1c-0.3,0.3-0.6,0.6-1,0.8c-0.3,0.2-0.6,0.4-0.9,0.6c-0.3,0.2-0.6,0.3-1,0.4c0,0,0,0,0,0c0,0-0.1,0-0.1,0
				c-0.2,0.1-0.4,0.1-0.6,0.2c0,0,0,0,0,0c-0.2,0.1-0.4,0.1-0.6,0.2c-0.2,0.1-0.4,0.1-0.6,0.2c-0.4,0.1-0.7,0.2-1,0.4
				c0.1-0.1,0.2-0.3,0.3-0.4c0.2-0.3,0.3-0.6,0.5-0.8c0.3-0.5,0.7-1,1-1.5c0.2-0.2,0.3-0.4,0.5-0.7c0,0,0-0.1,0.1-0.1
				c0.2-0.3,0.5-0.6,0.8-1c0-0.1,0.1-0.1,0.1-0.2c0.2-0.3,0.5-0.6,0.7-0.8c0.2-0.2,0.4-0.5,0.6-0.8c0.2-0.3,0.5-0.6,0.7-0.8
				c0.3-0.4,0.7-0.8,1-1.2c0.2-0.2,0.3-0.4,0.5-0.6c0,0,0,0,0,0c0,0,0,0,0,0c0,0-0.2,0.2-0.6,0.5c-0.3,0.3-0.7,0.6-1.2,1.1
				c-0.3,0.3-0.7,0.7-1,1.1c-0.1,0.1-0.1,0.1-0.2,0.2c-0.2,0.2-0.4,0.4-0.6,0.7c-0.1,0.1-0.2,0.2-0.3,0.3c-0.1,0.1-0.2,0.3-0.4,0.4
				c-0.1,0.2-0.3,0.3-0.4,0.5c0,0-0.1,0.1-0.1,0.1c-0.1,0.1-0.1,0.2-0.2,0.2c-0.1,0.1-0.2,0.3-0.3,0.4c-0.3,0.4-0.6,0.8-0.9,1.3
				c0,0.1-0.1,0.1-0.1,0.2c-0.3,0.5-0.6,1-1,1.6l0-0.1l-0.8,1.3c-0.6,0.9-1.5,2.3-2.3,3.4c0.8-1.9,2.2-4.6,3.8-7.1
				c0.3-0.5,0.6-1,1-1.4c0.1-0.1,0.2-0.3,0.3-0.4c0.1-0.1,0.1-0.1,0.2-0.2c0,0,0.1-0.1,0.1-0.1c0.2-0.3,0.5-0.6,0.7-0.9c0,0,0,0,0,0
				c0.1-0.1,0.2-0.2,0.3-0.3c0.2-0.2,0.3-0.4,0.5-0.6c0.3-0.3,0.6-0.6,0.9-0.9c0.4-0.4,0.8-0.8,1.2-1.2c0.2-0.2,0.4-0.3,0.6-0.5
				c0.1-0.1,0.2-0.2,0.4-0.3c0.1-0.1,0.1-0.1,0.2-0.2c0.5-0.4,1-0.9,1.5-1.3c2-1.7,3.9-3.1,5.2-4c0,0,0.1-0.1,0.2-0.1c0,0,0,0,0,0
				c0,0,0,0,0,0C70.4,14.7,70.4,14.8,70.4,14.8z"/>
			<path class="st1" d="M44.5,43.9c-1.2,0-2,0.2-2.4,0.4c0,0,0.1,0.1,0.1,0.2c0,0,0.1,0.1,0.1,0.1c0.3,0.4,0.3,0.8,0.1,1.2
				c-0.1,0.2-0.4,0.6-1.1,0.6l-5.3,0l-12.4,9l31,0.1l-3.3-10.2c-2-0.7-4-1.3-6.5-1.4C44.7,43.9,44.6,43.9,44.5,43.9"/>
			<path class="st1" d="M45.7,17.8c1.9,0,10.8,2,11.2,2.1c0.4,0.1,0.9,0.4,1,0.8c0,0.1,0.1,0.5,0.3,1.2c0.6,0.1,1,0.1,1.2,0.1
				c0.3-0.3,0.7-0.7,1-1L39.1,5.5l-4.2,12.7c1.1,0.3,2.3,0.9,3.8,1.6C41.7,18.3,43.6,17.8,45.7,17.8"/>
			<path class="st1" d="M17,23.2c0.2-0.7,0.6-1.1,1.2-1.2c0.1,0,0.6-0.1,1.2-0.1c0.2-0.7,0.3-1.2,0.3-1.2c0.1-0.4,0.5-0.7,1-0.8
				c0.5-0.1,9.3-2,11.2-2c0.7,0,1.4,0.1,2.1,0.2L37.8,6L12.7,24.2l3.4,2.5c0.2-0.6,0.3-1.2,0.4-1.6C16.7,24,16.9,23.3,17,23.2"/>
			<path class="st1" d="M12.8,25.6l1.9,6.1c0.4-1.4,0.7-2.7,1-3.9L12.8,25.6z"/>
			<path class="st1" d="M35,44.6c0,0,0-0.1,0.1-0.1c0-0.1,0.1-0.1,0.1-0.2c-0.4-0.2-1.2-0.4-2.4-0.4c-0.1,0-0.2,0-0.3,0
				c-3.1,0.1-5.5,1-7.9,1.9c-1.6,0.6-3.2,1.2-4.9,1.5l2.5,7.8L35,45.9c0-0.1-0.1-0.1-0.1-0.1C34.7,45.4,34.7,44.9,35,44.6"/>
			<path class="st1" d="M62.1,29.4c0.2,0.8,0.4,1.6,0.6,2.5l1.4-4.3c-0.2,0.2-0.3,0.4-0.4,0.5C63.2,28.6,62.6,29.1,62.1,29.4"/>
			<path class="st1" d="M52.6,45.8l2.8,8.5l2.3-7c-1.8-0.3-3.4-0.9-4.9-1.5C52.7,45.8,52.6,45.8,52.6,45.8"/>
			<path class="st1" d="M21.8,25.8c0,0,0-0.1,0-0.1c0-0.1,0-0.2,0.1-0.4c0.1-0.1,0.2-0.2,0.3-0.3c-0.1-0.1-0.1-0.1-0.2-0.2
				c0,0,0-0.1,0-0.1c0-0.1,0.1-0.2,0.2-0.3c0.1-0.1,0.2-0.1,0.3-0.2c0.1,0,0.2,0,0.3,0c0.1,0,0.2,0.1,0.2,0.2c0,0.1-0.1,0.2-0.2,0.3
				c0,0-0.1,0-0.1,0c0,0-0.1,0-0.1,0c0,0,0-0.1,0,0c0,0,0,0,0,0c0,0,0,0,0,0c0,0,0.1,0,0.1,0c0,0,0,0,0.1,0c0,0,0.1,0,0.1-0.1
				c0,0,0,0,0,0c0-0.1-0.1-0.1-0.2-0.1c-0.1,0-0.2,0.1-0.2,0.1c0,0-0.1,0.1-0.1,0.2c0,0,0,0.1,0,0.1c0,0.1,0.1,0.1,0.1,0.1
				c0.1,0,0.2,0,0.2,0c0.1,0,0.1,0,0.1,0.1c0,0,0,0,0,0c0,0,0,0.1-0.1,0.1c0,0-0.1,0-0.1,0c0,0-0.1,0-0.2,0
				c-0.1,0.1-0.1,0.1-0.1,0.2c-0.1,0.1-0.1,0.3-0.1,0.4c0,0,0,0,0,0.1c0,0.1,0.1,0.2,0.2,0.2c0.1,0,0.1,0,0.2,0
				c0.1,0,0.1-0.1,0.2-0.1c0.1-0.1,0.1-0.2,0.1-0.2c0-0.1,0-0.1,0-0.1c0-0.1-0.1-0.1-0.1-0.1c0,0,0,0-0.1,0c0,0-0.1,0.1-0.1,0.1
				c0,0.1,0,0.2,0,0.2c0,0-0.1,0-0.1-0.1c0-0.1,0-0.1,0-0.2c0-0.1,0.1-0.2,0.2-0.2c0.1,0,0.2,0,0.3,0.2c0,0,0,0,0,0.1
				c0,0.1,0,0.3-0.1,0.4c-0.1,0.2-0.2,0.3-0.4,0.3c-0.2,0-0.4,0-0.5-0.1C21.9,26.1,21.8,25.9,21.8,25.8"/>
			<path class="st1" d="M26.4,24.2C26.3,24.2,26.3,24.2,26.4,24.2C26.3,24.1,26.3,24.1,26.4,24.2c0-0.1,0-0.1,0-0.2c0,0,0,0,0-0.1
				c0,0,0,0,0-0.1c0,0,0-0.1,0-0.1c0-0.1,0-0.1,0-0.2c0-0.1,0.1-0.1,0.1-0.1c0,0,0.1,0,0.1,0c0,0,0,0.1,0.1,0.1c0,0.1,0,0.2,0,0.3
				c0,0.1-0.1,0.1-0.1,0.2C26.4,24.1,26.4,24.2,26.4,24.2"/>
			<path class="st1" d="M27.9,24.9c0-0.1,0-0.2,0.1-0.3c0,0,0,0,0.1,0c0.1,0,0.2,0,0.2,0.1c0,0,0,0.1,0,0.2c0,0.1-0.1,0.1,0,0.2
				c0,0.1,0.1,0.1,0.1,0.1c0.1,0,0.1-0.1,0.2-0.1c0.1-0.1,0.1-0.3,0.2-0.5c0-0.1,0-0.1,0-0.2c-0.1,0-0.1,0-0.2-0.1
				c0,0-0.1,0-0.1,0.1c-0.1,0-0.1,0-0.2-0.1c-0.1-0.1-0.1-0.1-0.1-0.2c0-0.2,0-0.4,0.1-0.5c0.1-0.2,0.3-0.3,0.5-0.3
				c0.1,0,0.1,0,0.2,0c0.2,0,0.4,0,0.4,0c0.1,0,0.1-0.1,0.2-0.1c0,0,0,0,0,0c0,0,0,0,0.1,0.1c0,0.1,0,0.2-0.1,0.3
				c0,0.1-0.1,0.1-0.2,0.2c-0.1,0-0.2,0-0.4,0c-0.2,0-0.3-0.1-0.4,0c-0.1,0-0.2,0.1-0.3,0.2c-0.1,0.1-0.1,0.2-0.1,0.3
				c0,0.1,0,0.1,0.1,0.2c0,0,0.1,0.1,0.1,0c0,0,0.1,0,0.1,0c0-0.1,0-0.1,0-0.2c0-0.1,0-0.1,0.1-0.1c0,0,0,0,0,0c0.1,0,0.1,0,0.1,0.1
				c0,0,0,0,0,0.1c0,0.1,0,0.1,0,0.2c0,0,0,0,0.1,0.1l0.1,0c0.1-0.3,0.1-0.5,0.2-0.5c0.1,0,0.1-0.1,0.1-0.1c0,0,0,0,0.1,0
				c0,0,0,0,0,0.1c0,0,0,0,0,0.1c0,0,0,0.1,0,0.1c0,0.1,0,0.1,0,0.2c0,0,0.1,0,0.1,0c0.1,0,0.1,0,0.2,0.1c0,0,0,0.1,0,0.1
				c0,0,0,0,0,0.1c0,0,0,0-0.1,0c0,0,0,0,0,0c0,0,0,0,0,0c0,0,0,0,0-0.1c0,0,0,0,0,0c0,0,0,0,0,0c0,0,0,0,0,0c0,0.2,0,0.4-0.1,0.5
				c0,0.2-0.1,0.3-0.2,0.4c-0.1,0.1-0.2,0.2-0.3,0.2c-0.1,0-0.2,0-0.4-0.1C28,25.1,27.9,25,27.9,24.9"/>
			<g>
				<path class="st1" d="M26.5,24.8C26.5,24.8,26.4,24.8,26.5,24.8c-0.1,0.1-0.1,0.2-0.1,0.2c0,0,0,0-0.1,0.1c0,0,0,0,0-0.1
					c0-0.2,0-0.3,0.1-0.4c0,0,0-0.1,0-0.1c0,0,0-0.1,0-0.1c0,0,0,0,0,0c0,0,0,0-0.1,0c0,0-0.1,0-0.1,0.1c-0.1,0-0.1,0.1-0.2,0
					c0,0,0-0.1,0-0.1c0,0,0-0.1,0-0.1c0,0,0,0-0.1,0c-0.1,0-0.1,0.1-0.1,0.1c0,0.1,0,0.1,0,0.1c0,0,0,0.1,0.1,0.1
					c0,0.1-0.1,0.2-0.1,0.3c0,0,0,0.1-0.1,0.2c0,0,0,0,0,0c0,0,0,0,0,0c0,0,0,0.1-0.1,0.1c0,0.1-0.1,0.1-0.1,0.2
					c0,0.1-0.1,0.1-0.1,0.1c-0.1,0-0.1,0-0.1-0.1c0.1-0.1,0.2-0.2,0.3-0.4c0.1-0.1,0.1-0.2,0.1-0.3c0,0,0-0.1-0.1-0.1
					c0,0-0.1,0-0.1,0c-0.1,0-0.2,0.1-0.3,0.2C25,24.8,25,24.9,24.9,25c0,0.1-0.1,0.1-0.1,0.2c0,0,0,0-0.1,0.1c0,0.1-0.1,0.1-0.1,0.1
					c0,0,0,0,0,0c0,0,0,0,0-0.1c0.1-0.3,0.1-0.7,0.2-1c0,0,0-0.1,0-0.1c0,0,0,0,0-0.1c0,0,0-0.1-0.1-0.1c0,0-0.1,0-0.1,0
					c0,0-0.1,0.1-0.1,0.4c0,0.1-0.1,0.2-0.1,0.4c-0.1,0.2-0.1,0.3-0.1,0.3c0,0.1-0.1,0.1-0.1,0.2c0,0,0,0,0,0c0,0,0,0,0,0
					c0,0,0,0.1-0.1,0.1c0,0,0,0.1-0.1,0.1c0,0-0.1,0,0-0.1c0-0.2,0.1-0.3,0.1-0.4c0-0.1,0-0.1,0-0.2c0,0,0,0-0.1,0
					c0,0-0.1,0-0.1,0.1c-0.1,0-0.1,0.1-0.1,0.1c-0.1,0.2-0.1,0.4-0.2,0.5c0,0.1-0.1,0.1-0.1,0.1c0,0,0,0,0,0c0,0,0,0,0-0.1
					c0-0.1,0-0.2,0.1-0.3c0,0,0,0,0-0.1c0,0,0-0.1-0.1-0.1c-0.1-0.1-0.1-0.1-0.1-0.1c0,0,0,0,0,0c-0.1,0.2-0.2,0.4-0.3,0.6
					c0,0,0,0.1,0,0.1c0,0,0,0,0.1,0c0,0,0.1-0.1,0.2-0.4c0,0.1-0.1,0.2-0.1,0.3c0,0.1,0,0.2,0,0.3c0,0.1,0.1,0.1,0.1,0.1
					c0.1,0,0.2-0.2,0.4-0.6c0,0.1,0,0.2-0.1,0.3c0,0,0,0,0,0.1c0,0,0,0.1,0.1,0.1c0,0,0.1,0,0.1,0c0,0,0.1,0,0.1,0
					c0.1-0.1,0.2-0.2,0.3-0.4c0,0,0,0,0,0c0,0,0.1-0.1,0.2-0.4c-0.1,0.3-0.1,0.5-0.1,0.6c0,0,0,0,0,0c0,0.1,0.1,0.1,0.2,0.1
					c0.1,0,0.1-0.1,0.2-0.1c0,0,0.1-0.1,0.1-0.2c0,0,0-0.1,0-0.1c0,0,0,0,0,0c0,0,0,0,0.1-0.1c0,0,0,0.1,0,0.1c0,0,0,0,0,0.1
					c0,0,0,0.1,0.1,0.1c0,0.1,0.1,0.1,0.1,0.1c0,0,0.1,0,0.1,0c0.1,0,0.3-0.2,0.4-0.4c0-0.1,0.1-0.1,0.1-0.2c0,0,0,0,0,0
					c0-0.1,0.1-0.2,0.2-0.5c0.1,0,0.1,0,0.1,0c0,0,0,0.1,0,0.2c-0.1,0.2-0.1,0.4-0.1,0.5c0,0,0,0.1,0.1,0.1c0,0,0.1,0,0.1,0
					c0,0,0.1,0,0.1-0.1c0.1-0.1,0.2-0.3,0.3-0.5C26.5,24.9,26.5,24.9,26.5,24.8C26.5,24.8,26.5,24.8,26.5,24.8
					C26.5,24.8,26.5,24.8,26.5,24.8z M25.3,24.8c0-0.1,0.1-0.2,0.1-0.2c0,0,0,0,0,0c0,0.1,0,0.1,0,0.2C25.4,25,25.3,25,25.3,25
					c0,0,0,0,0,0C25.2,25,25.3,24.9,25.3,24.8z"/>
				<path class="st1" d="M27.4,24.7C27.4,24.7,27.4,24.7,27.4,24.7c-0.1,0-0.1,0-0.1,0c0-0.1-0.1-0.1-0.1-0.1c0-0.1,0-0.1,0-0.1
					s0,0,0-0.1c0,0,0,0,0.1,0c0,0,0,0,0,0c0,0,0,0,0.1-0.1c0,0,0-0.1,0-0.1c0-0.1-0.1-0.1-0.2-0.1c-0.1,0-0.1,0-0.2,0.1
					c-0.1,0.1-0.1,0.1-0.2,0.2c-0.1,0.2-0.2,0.4-0.2,0.5c0,0,0,0.1,0,0.1c0,0,0.1,0,0.1,0c0,0,0-0.1,0.1-0.3
					c0.1-0.1,0.1-0.2,0.1-0.2c0,0,0,0.1,0,0.2c0,0.1,0,0.2,0,0.2c-0.1,0-0.1,0-0.1,0c0,0-0.1,0-0.1,0.1c0,0-0.1,0.1,0,0.2
					c0,0,0,0.1,0.1,0.1c0.1,0.1,0.1,0.1,0.3,0.1c0.1,0,0.1,0,0.2-0.1c0.1-0.1,0.1-0.2,0.1-0.3C27.4,24.8,27.4,24.8,27.4,24.7
					c0.1,0,0.1,0,0.1,0C27.5,24.6,27.5,24.6,27.4,24.7C27.4,24.6,27.4,24.6,27.4,24.7z M26.9,25.1C26.9,25.1,26.9,25.1,26.9,25.1
					C26.9,25,26.9,25,26.9,25.1c-0.1-0.1-0.1-0.1-0.1-0.1c0,0,0.1,0,0.2,0C27,25,27,25.1,26.9,25.1z"/>
				<path class="st1" d="M35.4,25c0.1-0.1,0.2-0.2,0.3-0.3c0.1-0.1,0.1-0.1,0.1-0.1c0,0,0-0.1,0-0.1c0-0.1,0-0.1-0.1-0.1
					c0,0-0.1,0-0.1,0.1c0,0,0,0-0.1,0.1c0,0-0.1-0.1-0.2-0.1c0,0-0.1,0-0.1,0c-0.1,0-0.2,0-0.2,0.1c0,0-0.1,0.1-0.2,0.1
					c-0.1,0.1-0.2,0.1-0.2,0.1c0,0-0.1,0-0.1,0v0c0,0-0.1,0-0.1,0.1c-0.1,0-0.1,0.1-0.1,0.1c0,0,0,0,0,0c0,0,0,0,0-0.1
					c0.2-0.3,0.4-0.5,0.6-0.8c0,0,0-0.1,0.1-0.1c0,0,0,0,0-0.1c0,0,0-0.1,0-0.1c0,0,0-0.1-0.1-0.1c0,0-0.1,0.1-0.3,0.3
					c0,0.1-0.1,0.1-0.3,0.3c-0.1,0.1-0.2,0.2-0.3,0.2c-0.1,0-0.1,0.1-0.2,0.1c0,0,0,0,0,0c0,0,0,0-0.1,0c0,0-0.1,0.1-0.1,0.1
					c0,0-0.1,0-0.1,0c0,0,0,0,0-0.1c0.1-0.1,0.2-0.3,0.3-0.4c0-0.1,0.1-0.1,0.1-0.1c0,0,0-0.1-0.1-0.1c0,0-0.1,0-0.1,0
					c-0.1,0-0.1,0-0.1,0.1c-0.2,0.2-0.3,0.3-0.4,0.3c0,0-0.1,0.1-0.1,0.1c0,0,0,0,0,0c0,0,0,0,0-0.1c0.1-0.1,0.1-0.2,0.2-0.3
					c0,0,0,0,0-0.1c0,0,0-0.1,0-0.1c0-0.1-0.1-0.1-0.1-0.1c0,0,0,0-0.1,0c-0.2,0.2-0.4,0.3-0.5,0.4c0,0,0,0,0,0c0,0,0,0-0.1,0
					c0,0,0,0.1-0.1,0.1c-0.1,0.1-0.1,0.1-0.2,0.1c0,0,0,0,0,0c0,0,0.1-0.2,0.2-0.3c0.1-0.1,0.1-0.2,0.1-0.3c0,0,0,0,0,0
					c0-0.1-0.1-0.1-0.1-0.1c0,0-0.1,0-0.1,0c0,0-0.1,0-0.1,0.1c-0.1,0.1-0.2,0.2-0.3,0.2c0.1-0.1,0.1-0.2,0.1-0.2c0,0,0,0,0,0
					c0-0.1-0.1-0.1-0.1-0.1c0,0-0.1,0-0.1,0c0,0-0.1,0-0.1,0.1c0,0-0.1,0.1-0.2,0.2c0,0-0.1,0.1-0.1,0.1c0-0.1,0.1-0.1,0.1-0.1
					c0,0,0-0.1,0-0.2c0,0,0-0.1,0-0.1c0,0,0-0.1-0.1-0.1c0,0-0.1,0.1-0.2,0.2c-0.1,0.1-0.2,0.2-0.3,0.3c0,0,0,0,0,0c0,0,0,0-0.1,0
					c0,0.1-0.1,0.1-0.1,0.1c0,0,0,0-0.1,0c0,0,0,0,0-0.1c0-0.1,0.1-0.3,0.1-0.4c0,0,0-0.1,0-0.1c0,0,0-0.1,0-0.1c0,0,0,0,0,0
					c0,0,0-0.1-0.1,0c0,0-0.1,0-0.1,0c-0.1,0-0.1,0-0.2,0c0,0,0-0.1,0-0.1c0,0,0-0.1,0-0.1c0,0,0,0-0.1,0c-0.1,0-0.1,0-0.1,0.1
					c0,0,0,0.1,0,0.1c0,0,0,0.1,0.1,0.1c0,0.1-0.1,0.2-0.1,0.3c0,0-0.1,0.1-0.1,0.1c0,0,0,0,0,0c0,0.1-0.1,0.1-0.1,0.1
					c0,0,0-0.1,0-0.1c0-0.2,0.1-0.3,0.1-0.4c0,0,0-0.1,0-0.1c0-0.1-0.1-0.2-0.2-0.1c0,0-0.1,0-0.1,0.1c-0.1,0.1-0.2,0.2-0.3,0.3
					c-0.1,0.1-0.1,0.2-0.2,0.3c0,0,0,0,0,0c0,0,0,0,0,0c0,0,0,0,0,0c0,0,0,0.1,0,0.1c0,0.1,0,0.2,0.1,0.2c0,0,0.1,0.1,0.2,0.1
					c0.1,0,0.3-0.1,0.4-0.3c0,0,0,0,0.1,0c0.1,0,0.1-0.1,0.2-0.2c0,0,0,0,0,0c0.1-0.1,0.1-0.2,0.3-0.5c0.1,0,0.1,0,0.1,0.1
					c0,0,0,0.1-0.1,0.2c-0.1,0.2-0.2,0.3-0.2,0.4c0,0,0,0.1,0.1,0.1c0,0,0.1,0.1,0.1,0.1c0,0,0.1,0,0.1,0c0.1-0.1,0.3-0.2,0.4-0.4
					c0,0,0,0,0,0c0.1-0.1,0.2-0.2,0.3-0.3c-0.1,0.2-0.2,0.4-0.2,0.4c0,0,0,0-0.1,0.1c0,0,0,0.1,0,0.1c0,0.1,0,0.1,0.1,0.1
					c0,0,0.1,0,0.1-0.1c0.1,0,0.1-0.1,0.1-0.1c0-0.1,0.1-0.1,0.2-0.2c0.1-0.1,0.1-0.2,0.2-0.2c0,0,0.1,0,0.1,0c0,0,0,0,0,0
					c0,0,0,0,0,0c-0.1,0.1-0.1,0.2-0.2,0.4c0,0,0,0-0.1,0.1c0,0,0,0.1,0,0.1c0,0.1,0,0.1,0.1,0.1c0,0,0.1,0,0.1-0.1
					c0.1,0,0.1-0.1,0.1-0.1c0-0.1,0.1-0.1,0.2-0.2c0.1-0.1,0.1-0.2,0.2-0.2c0,0,0.1,0,0.1,0c0,0,0,0,0,0c0,0,0,0,0,0
					c0,0.1-0.1,0.2-0.1,0.2c-0.1,0.1-0.1,0.2-0.1,0.3c0,0.1,0,0.1,0.1,0.1c0,0,0.1,0,0.1,0c0,0,0.1-0.1,0.2-0.1
					c0.1-0.1,0.2-0.1,0.2-0.2c0,0,0,0,0,0c0,0,0.1-0.1,0.3-0.3c-0.1,0.1-0.2,0.2-0.2,0.3c-0.1,0.1-0.1,0.2-0.1,0.2
					c0,0.1,0,0.1,0.1,0.1c0.1,0,0.3-0.1,0.7-0.4c-0.1,0.1-0.1,0.2-0.2,0.3c0,0,0,0,0,0.1c0,0,0,0.1,0,0.1c0,0,0,0.1,0.1,0.1
					c0,0,0.1,0,0.1,0c0.1,0,0.3-0.1,0.4-0.3c0,0,0,0,0,0c0,0,0.2-0.1,0.4-0.3c-0.2,0.2-0.3,0.4-0.4,0.5c0,0,0,0,0,0
					c0,0.1,0,0.1,0.1,0.1c0.1,0,0.1,0,0.2,0c0,0,0.1-0.1,0.2-0.1c0,0,0.1,0,0.1-0.1c0,0,0,0,0,0c0,0.1-0.1,0.1-0.1,0.2
					c0,0.1,0,0.1,0,0.1c0,0,0.1,0.1,0.1,0.1c0,0,0.1,0,0.2,0c0.1,0,0.1,0,0.2-0.1c0,0,0,0,0,0.1c0,0,0,0.1,0,0.1c0,0,0,0.1,0.1,0.1
					c0,0,0.1,0,0.1,0c0,0,0.1,0,0.2-0.1c0.1,0,0.2-0.1,0.2-0.1c0,0,0,0,0.1,0c0,0,0,0,0,0c0,0,0,0,0,0c0,0,0,0,0,0c0,0,0,0,0,0
					c0,0-0.1,0.1-0.1,0.1c-0.1,0-0.1,0-0.1,0c0,0,0,0,0-0.1C35.3,25.1,35.3,25,35.4,25z M29.9,24.2c-0.1,0-0.1,0-0.1,0.1
					c0,0,0,0,0,0.1c0,0,0,0.1,0,0.1c0,0.1-0.1,0.1-0.1,0.2c0,0,0,0,0,0c0,0,0,0-0.1-0.1c0-0.1,0-0.2,0.1-0.3
					c0.1-0.2,0.1-0.3,0.2-0.3c0,0,0.1,0,0.1,0.1C30,23.9,30,24,29.9,24.2z M35.1,24.9c0,0-0.1,0.1-0.1,0.1c-0.1,0-0.1,0.1-0.2,0.1
					c0,0,0,0,0-0.1c0,0,0.1-0.1,0.2-0.2c0.2-0.1,0.2-0.2,0.3-0.2c0,0,0,0,0,0.1C35.3,24.7,35.2,24.8,35.1,24.9z"/>
			</g>
			<path class="st1" d="M29.3,36.3C29.2,36.2,29.2,36.2,29.3,36.3C29.2,36.2,29.2,36.2,29.3,36.3c-0.1,0-0.1,0.1-0.2,0.1
				c0,0.1-0.1,0.1-0.1,0.1c-0.1,0-0.1,0.1-0.1,0.1c-0.1,0-0.1,0-0.1-0.1c0.1-0.1,0.3-0.2,0.4-0.3c0.1-0.1,0.1-0.2,0.1-0.3
				c0-0.1,0-0.1-0.1-0.1c0,0-0.1-0.1-0.1,0c-0.1,0-0.2,0.1-0.3,0.2c-0.1,0.1-0.1,0.2-0.2,0.3c-0.1,0.1-0.1,0.1-0.1,0.2c0,0,0,0,0,0
				c0,0,0,0-0.1,0.1c0,0.1-0.1,0.1-0.1,0.1c0,0,0,0,0,0c0,0,0,0,0-0.1c0.1-0.3,0.2-0.7,0.3-1c0,0,0-0.1,0-0.1c0,0,0,0,0-0.1
				c0,0,0-0.1-0.1-0.1c0,0-0.1,0-0.1-0.1c0,0-0.1,0.1-0.2,0.4c0,0.1-0.1,0.2-0.1,0.3c-0.1,0.2-0.1,0.3-0.2,0.3
				c0,0.1-0.1,0.1-0.1,0.2c0,0,0,0,0,0c0,0,0,0-0.1,0.1c0,0,0,0.1-0.1,0.1c0,0,0,0,0,0c0,0,0,0,0,0c0-0.1,0.1-0.1,0.1-0.2
				c0,0,0-0.1,0-0.1c0-0.1,0-0.2,0-0.3c0,0,0-0.1,0-0.1c0,0-0.1,0-0.1,0c0,0-0.1,0-0.1,0c-0.1,0.1-0.1,0.2-0.1,0.3
				c0,0.1,0,0.2,0,0.3c0,0.1,0,0.1,0.1,0.2c0,0,0,0,0,0c0,0,0,0,0,0c0,0.1-0.1,0.1-0.1,0.1c-0.1,0-0.1,0-0.1-0.1c0,0,0-0.1,0.1-0.3
				c0-0.1,0.1-0.3,0.1-0.4c0.1-0.3,0.1-0.5,0.1-0.5c0,0,0-0.1-0.1-0.1c0,0-0.1-0.1-0.1-0.1c0,0,0,0,0,0c0,0,0,0,0,0.1
				c-0.1,0.2-0.1,0.4-0.2,0.6c-0.1,0.2-0.2,0.4-0.3,0.5l0,0c0,0,0,0,0,0c0,0-0.1,0.1-0.1,0.1c0,0.1-0.1,0.1-0.1,0.1c0,0,0,0,0,0
				c0,0,0-0.1,0-0.2c0-0.2,0.1-0.3,0.1-0.4c0-0.1,0-0.1,0-0.2c0,0,0-0.1-0.1-0.1c-0.1,0-0.1-0.1-0.1-0.1c0,0,0,0-0.1,0.1
				c0,0,0,0,0,0.1c0,0-0.1,0-0.2,0c0,0-0.1,0-0.1,0c-0.1,0-0.1,0.1-0.2,0.2c0,0-0.1,0.1-0.1,0.2c-0.1,0.1-0.1,0.2-0.1,0.2
				c0,0,0,0,0,0.1c0,0,0,0,0,0c0,0,0,0-0.1,0.1c0,0.1-0.1,0.1-0.1,0.1c0,0,0,0,0,0c0,0,0,0,0-0.1c0,0,0-0.1,0-0.1c0,0,0-0.1,0-0.1
				c0,0,0,0-0.1,0c0,0-0.1,0-0.1,0c0-0.1,0.1-0.1,0.1-0.1c0,0,0,0,0,0c0,0,0,0,0,0c0,0,0.1,0,0.1,0c0,0,0.1-0.1,0.1-0.1
				c0-0.1,0-0.1,0-0.1c0-0.1-0.1-0.1-0.1-0.1c-0.1,0-0.2,0.2-0.4,0.5c0.1-0.5,0.1-0.8,0.2-0.8c0,0,0-0.1,0-0.1
				c-0.1-0.1-0.1-0.1-0.2-0.1c0,0-0.1,0.1-0.1,0.3c0,0.1-0.1,0.3-0.1,0.5c-0.1,0.1-0.1,0.3-0.1,0.4c0,0.1-0.1,0.1-0.1,0.2
				c0,0,0,0,0,0c0,0,0,0,0,0c0,0.1-0.1,0.1-0.1,0.2c0,0,0,0-0.1,0.1c0,0,0,0,0-0.1c0-0.2,0-0.3,0.1-0.4c0,0,0-0.1,0-0.1
				c0,0,0-0.1,0-0.1c0,0,0,0,0,0c0,0,0,0-0.1,0c0,0-0.1,0-0.1,0.1c-0.1,0-0.1,0.1-0.2,0c0,0,0-0.1,0-0.1c0,0,0-0.1,0-0.1
				c0,0,0,0-0.1,0c-0.1,0-0.1,0.1-0.1,0.1c0,0.1,0,0.1,0,0.1c0,0,0,0.1,0.1,0.1c0,0.1,0,0.2-0.1,0.3c0,0,0,0.1-0.1,0.1c0,0,0,0,0,0
				c0,0,0,0,0,0c0,0,0,0,0,0c0,0,0,0.1-0.1,0.2c0,0.1,0,0.1-0.1,0.1c0,0,0,0,0,0c0,0,0-0.1,0-0.2c0-0.2,0-0.3,0-0.4
				c0-0.1,0-0.1,0-0.2c0,0,0-0.1-0.1-0.1c-0.1,0-0.1,0-0.1,0c0,0,0,0.1,0,0.1c0,0,0,0,0,0.1c-0.1,0-0.1,0-0.2,0c0,0-0.1,0-0.1,0.1
				c-0.1,0.1-0.1,0.1-0.1,0.2c0,0,0,0.1,0,0.2c0,0.1-0.1,0.2-0.1,0.2c0,0,0,0.1,0,0.1h0c0,0,0,0,0,0.1c0,0,0,0.1,0,0.1
				c0,0.1-0.1,0.2-0.1,0.2c0,0,0,0,0,0c0,0,0-0.2,0-0.4c0-0.2,0-0.3,0-0.3c0,0,0,0,0,0c-0.1,0-0.1-0.1-0.1,0c0,0,0,0-0.1,0.1
				c0,0,0,0.1-0.1,0.1c-0.1,0.1-0.1,0.2-0.2,0.3c0-0.1,0-0.2,0-0.3c0,0,0,0,0,0c-0.1,0-0.1-0.1-0.1,0c0,0,0,0-0.1,0.1
				c0,0,0,0.1-0.1,0.1c0,0-0.1,0.1-0.1,0.3c0,0.1,0,0.1-0.1,0.2c0-0.1,0-0.1,0-0.2c0,0,0-0.1-0.1-0.2c0,0,0,0-0.1-0.1
				c0,0-0.1,0-0.1,0c0,0-0.1,0.1-0.1,0.3c0,0.2-0.1,0.3-0.1,0.4c0,0,0,0,0,0c0,0,0,0,0,0c0,0,0,0,0,0c0,0,0,0.1-0.1,0.1
				c0,0.1-0.1,0.1-0.1,0.2c0,0.1-0.1,0.1-0.1,0.1c-0.1,0-0.1,0-0.1-0.1c0.1-0.1,0.2-0.2,0.3-0.4c0.1-0.1,0.1-0.2,0-0.3
				c0,0,0-0.1-0.1-0.1c0,0-0.1,0-0.1,0c-0.1,0-0.2,0.1-0.2,0.2c-0.1,0.1-0.1,0.2-0.1,0.3c0,0.1-0.1,0.2-0.1,0.2c0,0,0,0,0,0
				c0,0,0,0,0,0c0,0,0,0,0,0c0,0.1-0.1,0.1-0.1,0.2c0,0,0,0-0.1,0.1c0,0,0,0,0-0.1c0-0.2,0.1-0.3,0.1-0.4c0,0,0-0.1,0-0.1
				c0,0,0-0.1,0-0.1c0,0,0,0,0,0c0,0,0,0-0.1,0c0,0-0.1,0-0.1,0.1c-0.1,0-0.1,0.1-0.2,0c0,0,0-0.1,0-0.1c0,0,0-0.1,0-0.1
				c0,0,0,0-0.1,0c-0.1,0-0.1,0.1-0.1,0.1c0,0.1,0,0.1,0,0.1c0,0,0,0.1,0.1,0.1c0,0.1-0.1,0.2-0.1,0.3c0,0.1-0.1,0.1-0.1,0.2
				c0,0,0,0,0,0c0,0,0,0,0,0c0,0,0,0,0.1,0c0-0.1,0.1-0.2,0.2-0.5c0.1,0,0.1,0,0.1,0c0,0,0,0.1,0,0.2c-0.1,0.2-0.1,0.4-0.1,0.5
				c0,0,0,0.1,0.1,0.1c0,0,0.1,0,0.1,0c0,0,0.1,0,0.1-0.1c0.1-0.1,0.2-0.3,0.3-0.5c0,0,0,0,0,0c0,0,0,0,0,0c0,0,0,0,0.1-0.1
				c0,0,0,0.1,0,0.1c0,0,0,0,0,0.1c0,0,0,0.1,0.1,0.1c0,0.1,0.1,0.1,0.1,0.1c0,0,0.1,0,0.1,0c0.1,0,0.3-0.2,0.4-0.4
				c0-0.1,0.1-0.1,0.1-0.2c0,0,0,0,0,0c0,0,0,0,0,0c0-0.1,0.1-0.3,0.1-0.4c0,0.2,0,0.4,0,0.5c0,0,0,0,0,0.1c0,0,0,0.1,0,0.1
				c0,0.1,0.1,0.1,0.1,0.1c0,0,0.1,0,0.1-0.1c0-0.1,0.1-0.1,0.1-0.2c0-0.1,0-0.2,0.1-0.3c0-0.1,0.1-0.2,0.1-0.2c0,0,0-0.1,0.1-0.1
				c0,0,0,0,0,0c0,0,0,0,0,0c0,0.1,0,0.3,0,0.4c0,0,0,0,0,0.1c0,0,0,0.1,0,0.1c0,0.1,0.1,0.1,0.1,0.1c0,0,0.1,0,0.1-0.1
				c0-0.1,0.1-0.1,0.1-0.2c0-0.1,0-0.2,0.1-0.3c0-0.1,0.1-0.2,0.1-0.2c0,0,0-0.1,0.1-0.1c0,0,0,0,0,0c0,0,0,0,0,0c0,0.1,0,0.2,0,0.3
				c0,0.2,0,0.3,0,0.3c0,0.1,0.1,0.1,0.2,0.1c0,0,0.1,0,0.1-0.1c0,0,0.1-0.1,0.1-0.2c0-0.1,0.1-0.2,0.1-0.2c0,0,0,0,0,0c0,0,0,0,0,0
				c0,0.1,0,0.1,0,0.2c0,0.1,0.1,0.1,0.1,0.1c0,0,0.1,0,0.1,0c0,0,0.1-0.1,0.1-0.1c0,0,0.1-0.1,0.1-0.2c0,0,0,0.1,0,0.1
				c0,0,0,0.1,0.1,0.1c0,0,0.1,0,0.1,0c0,0,0.1,0,0.1-0.1c0,0,0-0.1,0.1-0.2c0-0.1,0.1-0.2,0.1-0.2c0,0,0,0,0.1,0
				c0-0.1,0.1-0.3,0.2-0.5c0.1,0,0.1,0,0.1,0c0,0,0,0.1,0,0.2c-0.1,0.2-0.1,0.4-0.1,0.5c0,0,0,0.1,0.1,0.1c0,0,0.1,0,0.1,0
				c0,0,0.1,0,0.1-0.1c0.1-0.1,0.2-0.2,0.3-0.4c0,0,0,0,0,0c0,0,0.1-0.2,0.2-0.5c-0.1,0.5-0.2,0.7-0.2,0.8c0,0,0,0.1,0.1,0.1
				c0,0,0.1,0,0.1,0c0,0,0.1-0.1,0.1-0.2c0-0.1,0.1-0.2,0.1-0.2c0,0,0-0.1,0-0.1c0,0,0,0,0,0c0,0,0,0.1,0,0.1c0,0.1,0,0.1,0,0.1
				c0,0.1,0.1,0.1,0.1,0.1c0.1,0,0.1-0.1,0.2-0.1c0,0,0.1-0.1,0.1-0.2c0,0,0-0.1,0.1-0.1c0,0,0,0,0,0c0,0.1,0,0.1,0,0.2
				c0,0.1,0,0.1,0.1,0.1c0,0,0.1,0,0.1,0c0,0,0.1,0,0.1-0.1c0,0,0.1-0.1,0.2-0.2c0,0,0,0.1,0,0.1c0,0,0,0.1,0.1,0.1c0,0,0.1,0,0.1,0
				c0,0,0.1,0,0.1-0.1c0,0,0.1-0.1,0.1-0.2c0.1-0.1,0.1-0.1,0.1-0.2c0,0,0,0,0-0.1c0,0,0,0,0.1-0.1c0.1-0.1,0.1-0.2,0.2-0.3
				c0,0.1-0.1,0.2-0.1,0.3c0,0.1,0,0.2,0,0.2c0,0.1,0,0.1,0.1,0.2C26.9,37,27,37,27.1,37c0.1,0,0.2-0.1,0.3-0.3c0,0,0.1,0,0.1,0
				c0,0,0.1,0,0.1-0.1c0,0,0-0.1,0.1-0.1l0,0c0,0,0.1-0.1,0.2-0.4c-0.1,0.3-0.2,0.5-0.2,0.6c0,0,0,0,0,0c0,0.1,0.1,0.1,0.2,0.1
				c0.1,0,0.1,0,0.2-0.1c0,0,0.1-0.1,0.2-0.2c0,0,0-0.1,0.1-0.1c0,0,0,0,0,0c0,0,0,0,0.1-0.1c0,0,0,0,0,0.1c0,0,0,0,0,0.1
				c0,0,0,0.1,0,0.1c0,0.1,0.1,0.1,0.1,0.1c0,0,0.1,0,0.1,0c0.1,0,0.3-0.1,0.5-0.3C29.2,36.4,29.3,36.3,29.3,36.3
				C29.3,36.3,29.3,36.3,29.3,36.3z M28.9,36c0.1-0.1,0.1-0.2,0.1-0.2c0,0,0,0,0,0c0,0.1,0,0.1,0,0.2c-0.1,0.1-0.1,0.1-0.1,0.1
				c0,0,0,0,0,0C28.8,36.2,28.8,36.1,28.9,36z M20.7,38c0-0.1,0.1-0.2,0.1-0.2c0,0,0,0,0,0c0,0.1,0,0.1,0,0.2c0,0.1-0.1,0.2-0.1,0.2
				c0,0,0,0,0,0C20.6,38.1,20.6,38,20.7,38z M23.2,37.2c0,0.1,0,0.1,0,0.2c0,0.1-0.1,0.1-0.1,0.1c0,0,0,0-0.1,0c0,0,0-0.1,0-0.3
				c0-0.2,0.1-0.3,0.1-0.3c0,0,0,0,0.1,0C23.2,37,23.2,37.1,23.2,37.2z M26.2,36.5c0,0.1,0,0.1-0.1,0.2c0,0.1-0.1,0.1-0.1,0.1
				c0,0,0,0,0,0c0-0.1,0-0.1,0.1-0.3c0.1-0.2,0.1-0.3,0.2-0.3c0,0,0,0,0,0.1C26.3,36.3,26.3,36.4,26.2,36.5z"/>
			<path class="st1" d="M29.5,36.4c0,0,0,0.1,0,0.1c0,0.1,0,0.2-0.1,0.3c0,0.1-0.1,0.1-0.1,0.2c-0.1,0-0.1,0.1-0.1,0.1
				c0,0-0.1,0-0.1,0c0,0,0,0,0,0c0,0,0,0,0.1-0.1c0,0,0,0,0-0.1c0,0,0,0,0-0.1c0,0,0-0.1,0-0.1c0-0.1,0-0.1,0-0.2
				c0-0.1,0.1-0.1,0.1-0.1C29.4,36.3,29.5,36.3,29.5,36.4"/>
			<path class="st1" d="M42.1,35.3c0.1-0.1,0.1-0.2,0-0.3c0-0.1-0.1-0.2-0.2-0.2c-0.1,0.2-0.1,0.4-0.1,0.9c0,0.2,0,0.5-0.1,0.6
				c-0.1,0.2-0.2,0.2-0.3,0.3c-0.1,0-0.2,0-0.3,0c-0.1,0-0.2-0.1-0.2-0.2c0-0.1,0-0.2,0-0.3c0-0.1,0.1-0.1,0.1-0.1c0,0,0.1,0,0.1,0
				c0,0,0.1,0.1,0.1,0.1c0,0,0,0.1,0,0.1c0,0,0,0.1,0,0.1c0,0,0,0.1,0,0.1c0,0,0,0.1,0.1,0.1c0,0,0,0,0.1,0c0.1,0,0.3-0.3,0.3-0.8
				c0-0.3,0.1-0.6,0.2-0.8c-0.1,0-0.1,0-0.2,0c-0.2,0.1-0.3,0.1-0.4,0.3c-0.1,0.1-0.1,0.3-0.1,0.4c0,0.1,0,0.1,0.1,0.1
				c0,0,0,0,0.1,0c0,0,0.1,0,0.1,0c0,0,0,0,0,0.1c0,0,0,0.1-0.1,0.1c0,0-0.1,0-0.2,0c-0.1,0-0.1-0.1-0.1-0.2c0-0.2,0-0.3,0.1-0.5
				c0.1-0.2,0.3-0.3,0.5-0.4c0.1,0,0.2,0,0.2,0c0,0,0.1-0.1,0.1-0.1c0,0,0,0,0.1,0c0,0,0.1,0,0.1,0c0,0,0,0,0,0.1
				c0,0-0.1,0.1-0.1,0.1c0.1,0,0.2,0.1,0.3,0.2c0.1,0.1,0.1,0.1,0.1,0.2c0,0.1,0,0.1,0,0.2c0,0.1-0.1,0.1-0.1,0.2
				c0,0-0.1,0.1-0.1,0.1c0,0,0,0,0,0c0,0,0,0,0.1,0.1c0,0.1,0.1,0.2,0.1,0.2c0,0,0,0,0,0.1c0,0,0,0,0.1,0c0,0,0,0,0.1-0.1
				c0,0,0-0.1,0.1-0.1c0,0,0,0,0,0c0,0,0,0.1,0,0.1c0,0.1-0.1,0.2-0.1,0.3c-0.1,0.1-0.1,0.2-0.2,0.2c-0.1,0-0.2,0-0.2-0.1
				c0-0.1,0-0.2,0-0.4c0-0.1,0-0.1,0-0.1c0,0,0,0,0,0c0,0,0,0,0,0c0,0,0,0,0,0c0,0,0-0.1,0.1-0.1C42,35.4,42.1,35.4,42.1,35.3"/>
			<path class="st1" d="M42.7,35.8c0,0,0.1,0,0.1,0c0,0,0,0.1,0.1,0.1c0,0,0,0.1,0,0.1c0,0.1-0.1,0.1-0.1,0.1c-0.1,0-0.1,0-0.2-0.1
				c0,0,0-0.1,0-0.1C42.6,35.9,42.7,35.8,42.7,35.8"/>
			<path class="st1" d="M44.7,35.3C44.7,35.3,44.7,35.3,44.7,35.3C44.7,35.3,44.7,35.3,44.7,35.3C44.6,35.3,44.6,35.3,44.7,35.3
				C44.6,35.3,44.6,35.3,44.7,35.3c-0.1-0.1-0.1-0.1-0.1-0.1c0,0.2,0,0.4-0.1,0.5c-0.1,0.1-0.1,0.2-0.2,0.3
				c-0.1,0.1-0.2,0.1-0.3,0.1c-0.1,0-0.2,0-0.3-0.1c-0.1-0.1-0.1-0.2-0.2-0.3c0-0.1,0-0.2,0.1-0.3c0,0,0,0,0.1,0
				c0.1,0,0.2,0,0.2,0.1c0,0,0,0.1,0,0.1c0,0.1-0.1,0.1-0.1,0.1c0,0.1,0,0.1,0.1,0.1c0.1,0,0.1,0,0.2-0.1c0.1-0.1,0.2-0.2,0.2-0.4
				c0-0.1,0-0.1,0-0.1c-0.1,0-0.1,0-0.2-0.1c0,0-0.1,0-0.1,0c-0.1,0-0.1,0-0.2-0.1c-0.1-0.1-0.1-0.1-0.1-0.2c0-0.2,0-0.3,0.2-0.5
				c0.1-0.1,0.3-0.2,0.5-0.2c0.1,0,0.1,0,0.2,0c0.2,0,0.3,0.1,0.4,0c0.1,0,0.1,0,0.2-0.1c0,0,0,0,0,0c0,0,0,0,0,0.1
				c0,0.1,0,0.2-0.1,0.3c0,0.1-0.1,0.1-0.2,0.1c-0.1,0-0.2,0-0.4-0.1c-0.2-0.1-0.3-0.1-0.4-0.1c-0.1,0-0.2,0.1-0.3,0.1
				c-0.1,0.1-0.1,0.2-0.1,0.3c0,0.1,0,0.1,0,0.2c0,0,0.1,0.1,0.1,0c0,0,0.1,0,0.1,0c0-0.1,0-0.1,0-0.2c0-0.1,0-0.1,0.1-0.1
				c0,0,0,0,0,0c0,0,0.1,0,0.1,0.1c0,0,0,0,0,0.1c0,0.1,0,0.1-0.1,0.1c0,0,0,0,0.1,0.1l0.1,0c0.1-0.3,0.2-0.4,0.2-0.5
				c0.1,0,0.1-0.1,0.1-0.1c0,0,0,0,0,0c0,0,0,0,0,0c0,0,0,0,0,0c0,0,0,0.1,0,0.1c0,0.1,0,0.1,0,0.2c0,0,0.1,0,0.1,0
				c0.1,0,0.1,0,0.1,0.1c0,0,0,0.1,0,0.1C44.8,35.3,44.8,35.3,44.7,35.3C44.7,35.3,44.7,35.4,44.7,35.3
				C44.7,35.4,44.7,35.3,44.7,35.3"/>
			<path class="st1" d="M51.3,36.1C51.3,36.1,51.3,36.1,51.3,36.1c0-0.1,0-0.1-0.1-0.1c0,0,0,0-0.1,0c0,0-0.1,0-0.1,0
				c-0.1,0-0.1,0.1-0.3,0.1c0,0-0.1,0.1-0.2,0.1c0.1-0.1,0.1-0.1,0.1-0.1c0,0,0-0.1,0-0.1c0,0,0-0.1,0-0.1c0,0,0-0.1-0.1-0.1
				c0,0-0.1,0-0.3,0.2c-0.1,0.1-0.2,0.2-0.3,0.2c0,0,0,0,0,0c0,0,0,0,0,0c0,0-0.1,0.1-0.1,0.1c-0.1,0-0.1,0-0.1,0c0,0,0,0,0,0
				c0,0,0-0.1,0.1-0.1c0.1-0.1,0.2-0.2,0.2-0.3c0-0.1,0.1-0.1,0.1-0.1c0,0,0-0.1,0-0.1c0-0.1-0.1-0.1-0.1-0.1c0,0-0.1,0-0.1,0.1
				c0,0,0,0-0.1,0.1c0,0-0.1-0.1-0.2-0.1c0,0-0.1,0-0.1,0c-0.1,0-0.2,0-0.2,0.1c0,0-0.1,0.1-0.1,0.1c-0.1,0.1-0.1,0.1-0.2,0.1
				c0,0,0,0,0,0c0,0,0,0,0,0c0,0,0,0-0.1,0c0,0,0,0-0.1,0C49,36,48.9,36,48.9,36c0,0,0,0,0,0c0,0,0.1-0.1,0.2-0.3
				c0.1-0.1,0.1-0.2,0.1-0.2c0,0,0,0,0,0c0-0.1-0.1-0.1-0.1-0.1c0,0,0,0-0.1,0c0,0-0.1,0-0.1,0c-0.1,0.1-0.2,0.1-0.3,0.2
				c0.1-0.1,0.1-0.2,0.1-0.2c0,0,0,0,0,0c0-0.1-0.1-0.1-0.1-0.1c0,0,0,0-0.1,0c0,0-0.1,0-0.1,0c0,0-0.1,0.1-0.2,0.1
				c0,0-0.1,0.1-0.1,0.1c0.1-0.1,0.1-0.1,0.1-0.1c0,0,0-0.1,0-0.1c0,0,0-0.1,0-0.1c0,0,0-0.1-0.1-0.1c0,0-0.1,0-0.2,0.2
				c-0.1,0.1-0.2,0.2-0.3,0.3c0,0,0,0,0,0c0,0,0,0,0,0c0,0,0,0.1,0,0.1c-0.1,0.1-0.1,0.1-0.2,0.1c0,0,0,0,0,0c0,0,0.1-0.1,0.2-0.3
				c0.1-0.1,0.1-0.2,0.1-0.2c0,0,0,0,0,0c0-0.1-0.1-0.1-0.1-0.1c0,0,0,0-0.1,0c0,0-0.1,0-0.1,0.1c0,0-0.1,0.1-0.2,0.2
				c0,0-0.1,0.1-0.1,0.1c0-0.1,0.1-0.1,0.1-0.1c0,0,0-0.1,0-0.2c0,0,0-0.1,0-0.1c0,0,0,0-0.1-0.1c0,0-0.1,0.1-0.2,0.2
				c-0.1,0.1-0.2,0.2-0.3,0.3c0,0,0,0,0,0c0,0,0,0-0.1,0c-0.1,0.1-0.2,0.2-0.3,0.3c0.1-0.1,0.2-0.3,0.2-0.4c0.1-0.1,0.1-0.2,0.1-0.3
				c0-0.1,0-0.1,0-0.1c0,0-0.1-0.1-0.1-0.1c0,0-0.1,0-0.1,0.1c0,0.1,0,0.1,0,0.2c0,0,0,0,0,0.1c0,0,0,0.1,0,0.1c0,0.1,0,0.2-0.1,0.2
				c-0.1,0.1-0.1,0.2-0.2,0.3c0,0,0,0-0.1,0c0-0.1,0.1-0.3,0.1-0.5c0-0.1,0-0.2,0-0.2c0-0.1,0-0.2-0.1-0.2c0,0-0.1,0-0.1,0.1
				c0,0.1-0.1,0.1-0.1,0.2c-0.1,0.1-0.1,0.2-0.2,0.2c0,0,0,0,0,0c0,0,0,0,0,0c0,0-0.1,0-0.1,0.1c0,0-0.1,0.1-0.1,0.1
				c-0.1,0-0.1,0.1-0.1,0.1c-0.1,0-0.1,0-0.1-0.1c0.1-0.1,0.3-0.1,0.4-0.3c0.1-0.1,0.1-0.2,0.1-0.2c0,0,0-0.1-0.1-0.1
				c0,0-0.1-0.1-0.1-0.1c-0.1,0-0.2,0-0.3,0.1c-0.1,0.1-0.1,0.1-0.2,0.2c-0.1,0.1-0.1,0.2-0.1,0.2c0,0,0,0,0,0.1c0,0,0,0,0,0
				c0,0,0,0,0,0c0,0,0,0,0.1-0.1c0,0,0,0,0,0.1c0,0,0,0,0,0.1c0,0,0,0.1,0,0.1c0,0.1,0.1,0.1,0.1,0.1c0,0,0.1,0,0.1,0
				c0.1,0,0.3-0.1,0.5-0.3c0.1-0.1,0.1-0.1,0.1-0.1c0,0,0,0,0,0c0.1-0.1,0.1-0.1,0.1-0.1c0,0,0,0,0,0c0,0,0,0.1,0,0.1
				c0,0,0,0.1,0,0.1c0,0.1-0.1,0.3-0.1,0.3c-0.1,0-0.3,0.1-0.3,0.1c-0.2,0.1-0.3,0.2-0.3,0.3c0,0,0,0.1,0,0.1c0,0.1,0.1,0.1,0.2,0.1
				c0,0,0.1,0,0.1,0c0.1,0,0.3-0.1,0.5-0.4c0.1-0.1,0.1-0.1,0.2-0.2c0.1,0,0.1,0,0.2-0.1c0.1-0.1,0.2-0.2,0.3-0.2
				c0,0,0.1-0.1,0.3-0.3c-0.1,0.2-0.2,0.3-0.2,0.4c0,0,0,0-0.1,0.1c0,0,0,0.1,0,0.1c0,0.1,0,0.1,0.1,0.1c0,0,0.1,0,0.1,0
				c0.1,0,0.1-0.1,0.1-0.1c0,0,0.1-0.1,0.2-0.2c0.1-0.1,0.1-0.1,0.2-0.2c0,0,0.1,0,0.1,0c0,0,0,0,0,0c0,0,0,0,0,0
				c-0.2,0.2-0.2,0.4-0.2,0.5c0,0.1,0,0.1,0.1,0.1c0,0,0.1,0,0.1,0c0,0,0.1-0.1,0.2-0.1c0.1-0.1,0.1-0.1,0.2-0.2c0,0,0,0,0,0
				c0,0,0,0,0,0c0.1-0.1,0.2-0.2,0.3-0.2c-0.1,0.2-0.2,0.3-0.2,0.3c0,0,0,0-0.1,0.1c0,0,0,0.1,0,0.1c0,0.1,0,0.1,0.1,0.1
				c0,0,0.1,0,0.1,0c0.1,0,0.1-0.1,0.1-0.1c0,0,0.1-0.1,0.2-0.2c0.1-0.1,0.1-0.1,0.2-0.2c0,0,0.1,0,0.1,0c0,0,0,0,0,0c0,0,0,0,0,0
				c-0.1,0.1-0.2,0.2-0.2,0.3c0,0,0,0-0.1,0.1c0,0,0,0.1,0,0.1c0,0.1,0,0.1,0.1,0.1c0,0,0.1,0,0.1,0c0.1,0,0.1-0.1,0.1-0.1
				c0,0,0.1-0.1,0.2-0.2c0.1-0.1,0.1-0.1,0.2-0.2c0,0,0.1,0,0.1,0c0,0,0,0,0,0c0,0,0,0,0,0c0,0.1-0.1,0.1-0.1,0.2
				c-0.1,0.1-0.1,0.2-0.1,0.2c0,0.1,0,0.1,0.1,0.1c0,0,0.1,0,0.1,0c0,0,0.1,0,0.2-0.1c0.1-0.1,0.1-0.1,0.2-0.1c0,0,0,0,0,0
				c0,0-0.1,0.1-0.1,0.1c0,0,0,0.1,0,0.1c0,0,0.1,0.1,0.1,0.1c0,0,0.1,0,0.2,0c0.1,0,0.1,0,0.2-0.1c0,0,0,0,0,0.1c0,0,0,0.1,0,0.1
				c0,0,0,0,0.1,0.1c0,0,0.1,0,0.1,0c0,0,0.1,0,0.2-0.1c0.1,0,0.1-0.1,0.2-0.1c0,0,0,0,0,0c0,0,0.1-0.1,0.3-0.2
				c-0.1,0.2-0.2,0.3-0.3,0.3c0,0,0,0-0.1,0.1c0,0,0,0.1-0.1,0.1c0,0.1,0,0.1,0,0.1c0,0,0.1,0,0.1,0c0.1,0,0.1-0.1,0.1-0.1
				c0,0,0.1-0.1,0.2-0.2c0.1-0.1,0.2-0.1,0.2-0.1c0,0,0.1,0,0.1,0c0,0,0,0,0,0c0,0,0,0,0,0c-0.2,0.2-0.3,0.4-0.3,0.4
				c0,0.1,0,0.1,0.1,0.1c0,0,0.1,0,0.1,0c0,0,0.1,0,0.2-0.1c0.1,0,0.2-0.1,0.2-0.1c0,0,0.1-0.1,0.1-0.1c0,0,0,0,0-0.1c0,0,0,0-0.1,0
				c0,0-0.1,0-0.1,0c-0.1,0-0.1,0.1-0.2,0.1c0,0,0,0,0,0c0,0,0.1-0.1,0.2-0.3C51.3,36.2,51.3,36.1,51.3,36.1z M45.3,35.2
				c0.1-0.1,0.1-0.1,0.1-0.1c0,0,0,0,0,0C45.5,35.2,45.4,35.2,45.3,35.2c0,0.1,0,0.2,0,0.2c0,0,0,0,0,0
				C45.2,35.3,45.3,35.3,45.3,35.2z M45.7,36.1c-0.1,0.2-0.2,0.3-0.3,0.4c-0.1,0-0.1,0-0.1-0.1c0,0,0-0.1,0-0.1
				C45.3,36.1,45.5,36.1,45.7,36.1C45.7,36,45.7,36.1,45.7,36.1z M49.8,36c0,0-0.1,0.1-0.1,0.1c-0.1,0-0.1,0.1-0.1,0.1
				c0,0,0,0,0-0.1c0,0,0.1-0.1,0.2-0.2c0.1-0.1,0.2-0.2,0.2-0.2c0,0,0,0,0,0.1C49.9,35.9,49.8,35.9,49.8,36z"/>
			<path class="st1" d="M45.9,23.1C45.9,23.1,45.9,23,45.9,23.1c0-0.1,0-0.1,0-0.2c0,0,0-0.1,0-0.1c0,0,0,0,0-0.1c0,0,0,0-0.1,0
				c0,0,0,0,0,0c-0.1,0.2-0.1,0.2-0.1,0.3c0,0,0,0,0,0c-0.1,0-0.1,0-0.1,0c0,0,0,0,0,0c0,0,0,0.1,0.1,0.1c-0.1,0.1-0.2,0.3-0.3,0.4
				c0,0,0,0,0,0c0,0,0,0,0,0c0,0,0,0.1-0.1,0.1c0,0,0-0.1,0-0.1c0-0.1,0-0.1,0-0.1c0-0.1,0-0.1,0-0.1c0,0,0,0,0-0.1c0,0,0,0,0.1,0
				c0,0,0,0,0,0c0,0,0,0,0.1,0c0,0,0-0.1,0-0.1c0-0.1-0.1-0.1-0.1-0.1c0,0-0.1,0-0.2,0.1c-0.1,0-0.1,0.1-0.2,0.2
				c-0.1,0.1-0.2,0.3-0.2,0.3l0,0c0,0,0,0,0,0c0,0.1,0,0.1-0.1,0.1c0,0,0,0,0-0.1c0-0.1,0-0.3,0-0.4c0,0,0-0.1,0-0.1
				c0-0.1-0.1-0.1-0.2-0.1c0,0-0.1,0-0.1,0.1c-0.1,0.1-0.2,0.2-0.2,0.3c0,0.1-0.1,0.2-0.1,0.2c0,0,0,0,0,0c0,0,0,0,0,0
				c0,0,0,0.1,0,0.1C43.6,24,43.6,24,43.6,24c0,0,0,0,0,0c0,0,0-0.1,0-0.3c0-0.1,0-0.2,0-0.3c0,0,0,0,0,0c0,0-0.1-0.1-0.1,0
				c0,0,0,0-0.1,0c0,0,0,0.1-0.1,0.1c-0.1,0.1-0.1,0.2-0.2,0.3c0-0.1,0-0.2,0-0.2c0,0,0,0,0,0c0,0-0.1-0.1-0.1,0c0,0,0,0-0.1,0
				c0,0,0,0.1-0.1,0.1c0,0-0.1,0.1-0.1,0.2c0,0-0.1,0.1-0.1,0.2c0-0.1,0-0.1,0-0.1c0,0,0-0.1,0-0.1c0,0,0,0-0.1-0.1c0,0-0.1,0-0.1,0
				c0,0-0.1,0.1-0.1,0.3c0,0.1-0.1,0.2-0.1,0.3c0,0,0,0,0,0c0,0,0,0-0.1,0.1c0,0.1,0,0.1-0.1,0.1c0,0,0,0,0,0c0,0,0,0,0-0.1
				c0-0.3,0-0.6,0.1-0.9c0,0,0-0.1,0-0.1c0,0,0,0,0-0.1c0,0,0,0-0.1-0.1c0,0-0.1,0-0.1,0c0,0,0,0.1-0.1,0.4c0,0.1,0,0.2-0.1,0.3
				c0,0.2-0.1,0.3-0.1,0.3c0,0.1,0,0.1-0.1,0.2c0,0,0,0,0,0c0,0,0,0,0,0c0,0,0,0.1-0.1,0.1c0,0.1,0,0.1-0.1,0.1c0,0,0,0,0,0
				c0,0,0-0.1,0-0.1c0-0.2,0-0.3,0-0.3c0-0.1,0-0.1,0-0.1c0,0,0-0.1-0.1-0.1c-0.1,0-0.1,0-0.1,0c0,0,0,0.1,0,0.1c0,0,0,0,0,0.1
				c0,0-0.1,0-0.2,0c0,0-0.1,0-0.1,0.1c-0.1,0-0.1,0.1-0.1,0.2c0,0,0,0.1,0,0.2c0,0.1,0,0.2-0.1,0.2c0,0,0,0.1,0,0.1c0,0,0,0,0,0.1
				c0,0,0,0.1,0,0.1c0,0,0,0,0,0c0,0.1,0,0.1,0,0.2c0,0,0,0.1,0.1,0.1c0,0,0.1,0,0.1,0c0,0,0.1,0,0.1-0.1c0,0,0.1-0.1,0.1-0.2
				c0,0,0,0,0,0.1c0,0,0,0.1,0.1,0.1c0,0,0.1,0,0.1,0c0,0,0.1,0,0.1-0.1c0,0,0-0.1,0.1-0.2c0-0.1,0.1-0.1,0.1-0.2c0,0,0,0,0,0
				c0,0,0,0,0,0c0,0,0.1-0.1,0.1-0.4c0,0.3,0,0.5,0,0.6c0,0,0,0,0,0c0,0,0.1,0.1,0.1,0c0.1,0,0.1-0.1,0.2-0.1c0,0,0.1-0.1,0.1-0.2
				c0,0,0-0.1,0-0.1c0,0,0,0,0,0c0.1-0.1,0.1-0.2,0.1-0.3c0,0.2-0.1,0.4-0.1,0.4c0,0,0,0,0,0.1c0,0,0,0.1,0,0.1c0,0,0,0.1,0.1,0.1
				c0,0,0.1,0,0.1-0.1c0,0,0.1-0.1,0.1-0.2c0-0.1,0-0.1,0.1-0.3c0-0.1,0.1-0.2,0.1-0.2c0,0,0-0.1,0.1-0.1c0,0,0,0,0,0c0,0,0,0,0,0
				c0,0.1,0,0.2-0.1,0.4c0,0,0,0,0,0.1c0,0,0,0.1,0,0.1c0,0,0,0.1,0.1,0.1c0,0,0.1,0,0.1-0.1c0,0,0.1-0.1,0.1-0.1
				c0-0.1,0-0.1,0.1-0.3c0-0.1,0.1-0.2,0.1-0.2c0,0,0-0.1,0.1-0.1c0,0,0,0,0,0c0,0,0,0,0,0c0,0.1,0,0.2,0,0.2c0,0.1,0,0.2,0,0.3
				c0,0.1,0.1,0.1,0.1,0.1c0,0,0.1,0,0.1,0c0,0,0.1-0.1,0.1-0.2c0.1-0.1,0.1-0.2,0.1-0.2c0,0,0,0,0,0c0,0,0,0,0,0c0,0,0,0,0,0
				c0,0,0,0.1,0,0.1c0,0.1,0,0.1,0.1,0.2c0,0,0.1,0.1,0.2,0c0.1,0,0.2-0.1,0.3-0.3c0,0,0,0,0.1,0c0.1,0,0.1-0.1,0.2-0.2c0,0,0,0,0,0
				c0,0,0-0.1,0.1-0.2c0.1-0.1,0.1-0.2,0.1-0.2c0,0,0,0.1,0,0.2c0,0.1,0,0.1,0,0.2c-0.1,0-0.1,0-0.1,0c0,0-0.1,0-0.1,0
				c0,0-0.1,0.1-0.1,0.2c0,0,0,0.1,0,0.1c0,0.1,0.1,0.1,0.2,0.1c0.1,0,0.1,0,0.1-0.1c0.1-0.1,0.1-0.1,0.1-0.2c0,0,0.1,0,0.1-0.1
				c0,0,0,0,0,0c0.1-0.1,0.1-0.2,0.2-0.3c-0.1,0.2-0.1,0.4-0.2,0.4c0,0,0,0.1,0,0.1c0,0,0.1,0.1,0.1,0.1c0.1,0,0.1-0.1,0.3-0.1
				c0.1-0.1,0.2-0.2,0.2-0.2c0,0,0-0.1,0-0.1c0,0,0,0,0,0c0,0,0,0-0.1,0c-0.1,0.1-0.1,0.1-0.2,0.2c0,0,0,0,0,0c0,0,0,0,0,0
				c0,0,0,0,0-0.1c0,0,0.1-0.1,0.1-0.3c0,0,0-0.1,0.1-0.2c0,0,0,0,0.1,0c0,0,0,0,0.1,0c0,0,0,0,0.1,0l0-0.1c0,0,0,0,0,0
				C46,23.1,46,23.1,45.9,23.1z M41.3,24.6c0,0.1,0,0.1-0.1,0.1c0,0,0,0,0,0c0,0,0-0.1,0-0.3c0-0.2,0.1-0.3,0.1-0.3c0,0,0,0,0.1,0
				c0,0,0,0.1,0,0.2C41.4,24.5,41.4,24.6,41.3,24.6z M44.3,23.6c-0.1,0-0.1,0-0.1,0.1c0,0,0,0,0,0.1c0,0,0,0.1,0,0.1
				c0,0.1,0,0.1-0.1,0.1c0,0,0,0,0,0c0,0,0,0,0-0.1c0-0.1,0-0.1,0-0.3c0.1-0.2,0.1-0.3,0.1-0.3c0,0,0.1,0,0.1,0.1
				C44.3,23.4,44.3,23.5,44.3,23.6z M44.8,23.9C44.8,23.9,44.8,23.9,44.8,23.9C44.7,23.9,44.7,23.9,44.8,23.9
				c-0.1-0.1-0.1-0.1,0-0.1c0,0,0.1,0,0.1,0C44.8,23.9,44.8,23.9,44.8,23.9z"/>
			<path class="st1" d="M53,24.5C53,24.5,53,24.4,53,24.5c-0.1-0.1-0.1-0.1-0.1-0.2c0-0.1,0-0.1,0.1-0.2c0,0,0.1-0.1,0.2,0
				c0,0,0.1,0,0.1,0.1c0,0,0,0.1,0,0.1c0,0.1-0.1,0.1-0.1,0.2C53.1,24.5,53.1,24.5,53,24.5"/>
			<path class="st1" d="M54.7,25.6c0,0-0.1,0-0.2,0.1c0,0-0.1,0-0.1,0.1c0.2-0.3,0.3-0.5,0.4-0.6c0,0,0,0,0-0.1c0,0,0,0,0-0.1
				c0-0.1,0-0.1-0.1-0.1c0,0-0.1,0.1-0.2,0.2c0,0-0.1-0.1-0.2-0.1c-0.1,0-0.2,0-0.3,0.1c0,0-0.1,0.1-0.2,0.2c-0.1,0-0.1,0.1-0.1,0.1
				l0,0c0,0,0,0,0,0c0,0-0.1,0-0.1,0c-0.1,0-0.1,0.1-0.2,0.1c0,0,0,0,0,0c0,0,0.1-0.1,0.2-0.3c0.1-0.1,0.1-0.2,0.1-0.2c0,0,0,0,0,0
				c0-0.1,0-0.1-0.1-0.1c0,0,0,0-0.1,0c0,0-0.1,0-0.1,0c0,0-0.1,0.1-0.2,0.1c0,0-0.1,0.1-0.1,0.1c0.1-0.1,0.1-0.1,0.1-0.1
				c0,0,0-0.1,0-0.1c0,0,0-0.1,0-0.1c0,0,0-0.1-0.1-0.1c0,0-0.1,0-0.2,0.2C53,24.9,53,25,52.9,25.1c0,0-0.1,0-0.1,0.1
				c-0.1,0-0.1,0.1-0.1,0.1c0,0,0,0,0,0c0,0,0-0.1,0.1-0.2c0.1-0.1,0.1-0.2,0.1-0.2c0,0,0-0.1,0-0.2c0,0,0,0,0,0c0,0,0,0-0.1,0
				c0,0-0.1,0-0.1,0.1c-0.1,0.1-0.1,0.1-0.2,0.2c-0.1,0.1-0.2,0.1-0.2,0.2c0,0,0,0,0,0c0,0,0,0,0,0c0,0-0.1,0-0.1,0.1c0,0,0,0,0,0
				c0,0,0,0,0,0c0,0,0,0,0,0c0.1-0.1,0.2-0.3,0.3-0.4c0.2-0.2,0.3-0.4,0.3-0.4c0,0,0-0.1,0-0.1c0,0,0-0.1-0.1-0.1c0,0,0,0,0,0
				c0,0,0,0,0,0c-0.1,0.2-0.3,0.3-0.4,0.4c0,0-0.1-0.1-0.1-0.1c-0.1,0-0.2,0-0.3,0.1c-0.1,0-0.2,0.1-0.3,0.2c-0.1,0-0.1,0.1-0.1,0.1
				c0,0,0,0,0,0c0,0,0,0-0.1,0c0,0-0.1,0-0.1,0c-0.1,0-0.1,0.1-0.2,0.1c0,0,0,0,0,0c0,0,0.1-0.1,0.2-0.3c0.1-0.1,0.1-0.2,0.1-0.2
				c0,0,0,0,0,0c0-0.1,0-0.1-0.1-0.1c0,0,0,0-0.1,0c0,0-0.1,0-0.1,0c0,0-0.1,0.1-0.2,0.1c0,0-0.1,0.1-0.1,0.1
				c0.1-0.1,0.1-0.1,0.1-0.1c0,0,0-0.1,0-0.1c0,0,0-0.1,0-0.1c0,0,0-0.1-0.1-0.1c0,0-0.1,0-0.2,0.2c-0.1,0.1-0.2,0.2-0.3,0.2
				c0,0,0,0,0,0c0,0,0,0-0.1,0c0,0-0.1,0.1-0.1,0.1c0,0-0.1,0-0.1,0c0,0,0,0,0-0.1c0.1-0.1,0.2-0.2,0.2-0.3c0-0.1,0.1-0.1,0.1-0.1
				c0,0,0-0.1,0-0.1c0,0-0.1,0-0.1,0c-0.1,0-0.1,0-0.1,0.1c-0.1,0.1-0.3,0.2-0.3,0.3c0,0-0.1,0-0.1,0c0,0,0,0,0,0c0,0,0,0,0,0
				c0.1-0.1,0.1-0.2,0.2-0.2c0,0,0,0,0,0c0,0,0-0.1,0-0.1c0-0.1,0-0.1-0.1-0.1c0,0,0,0,0,0c-0.2,0.1-0.3,0.3-0.5,0.4c0,0,0,0,0,0
				c0,0,0,0,0,0c0,0-0.1,0.1-0.1,0.1c0,0,0,0,0-0.1c0.1-0.1,0.1-0.2,0.2-0.3c0,0,0-0.1,0-0.1c0-0.1,0-0.2-0.1-0.2c0,0-0.1,0-0.1,0
				c-0.1,0-0.2,0.1-0.3,0.2c-0.1,0.1-0.1,0.1-0.2,0.2c0,0,0,0-0.1,0c-0.1,0-0.1,0.1-0.2,0.1c0,0,0,0,0,0c0,0,0,0,0,0c0,0,0,0,0-0.1
				c0,0,0.1-0.1,0.2-0.3c0,0,0.1-0.1,0.1-0.1c0,0,0,0,0.1,0c0,0,0,0,0,0c0,0,0,0,0.1,0l0,0c0,0,0,0,0,0c0,0,0,0-0.1-0.1c0,0,0,0,0,0
				c0,0,0-0.1,0-0.1c0,0,0-0.1,0-0.1c0,0,0,0,0-0.1c0,0,0,0,0,0c0,0,0,0-0.1,0c-0.1,0.1-0.2,0.2-0.2,0.2c0,0,0,0,0,0
				c-0.1,0-0.1,0-0.1,0c0,0,0,0,0,0c0,0,0,0.1,0,0.1c-0.1,0.1-0.2,0.2-0.3,0.3c0,0,0,0,0,0c0,0,0,0-0.1,0c0,0-0.1,0-0.1,0
				c0,0,0-0.1,0-0.1c0-0.1,0-0.1,0-0.1c0-0.1,0-0.1,0-0.1c0,0,0,0,0,0c0,0,0,0,0.1,0c0,0,0,0,0,0c0,0,0,0,0.1,0s0,0,0-0.1
				c0-0.1,0-0.1-0.1-0.1c0,0-0.1,0-0.2,0c-0.1,0-0.1,0.1-0.2,0.1c-0.1,0.1-0.2,0.2-0.3,0.3c0,0,0,0,0,0c0,0,0,0,0,0
				c0,0-0.1,0.1-0.1,0.1c0,0-0.1,0.1-0.1,0c0,0,0,0,0,0c0,0,0-0.1,0-0.1c0.1-0.1,0.1-0.2,0.2-0.3c0-0.1,0.1-0.1,0.1-0.1
				c0,0,0-0.1,0-0.1c0-0.1-0.1-0.1-0.1-0.1c0,0-0.1,0-0.1,0.1c0,0,0,0,0,0.1c0,0-0.1,0-0.2-0.1c0,0-0.1,0-0.1,0
				c-0.1,0-0.1,0.1-0.2,0.1c0,0-0.1,0.1-0.1,0.1c-0.1,0.1-0.1,0.1-0.2,0.2c0,0,0,0-0.1,0.1c0,0,0,0,0,0c0,0,0,0.1,0,0.1c0,0,0,0,0,0
				c0,0.1,0,0.1-0.1,0.2c0,0,0,0.1,0,0.1c0,0,0.1,0.1,0.1,0.1c0,0,0.1,0,0.1,0s0.1-0.1,0.2-0.1c0,0,0,0,0,0.1c0,0,0,0.1,0,0.1
				c0,0,0,0,0.1,0c0,0,0.1,0,0.1,0c0,0,0.1-0.1,0.1-0.1c0.1-0.1,0.1-0.1,0.2-0.1c0,0,0,0,0,0c0,0,0,0,0,0c0,0,0.1-0.1,0.2-0.2
				c0.1-0.1,0.2-0.1,0.2-0.2c0,0,0,0.1,0,0.2c0,0.1,0,0.1,0,0.2c-0.1,0-0.1,0-0.1,0c0,0-0.1,0-0.1,0c0,0-0.1,0.1-0.1,0.1
				c0,0,0,0.1,0,0.1c0,0.1,0.1,0.1,0.2,0.1c0,0,0.1,0,0.2,0c0.1,0,0.1-0.1,0.2-0.2c0,0,0.1,0,0.1-0.1c0,0,0,0,0,0
				c0.1-0.1,0.2-0.1,0.2-0.2C48.1,23.9,48,24,48,24.1c0,0,0,0.1,0,0.1c0,0,0.1,0.1,0.1,0.1c0.1,0,0.2,0,0.3-0.1
				c0.1-0.1,0.2-0.1,0.2-0.2c0,0,0,0,0,0c0,0,0,0.1,0,0.1c0,0.1,0,0.1,0,0.2c0,0.1,0.1,0.1,0.1,0.1c0.1,0,0.3,0,0.4-0.2
				c0,0,0,0,0.1,0c0.1,0,0.1,0,0.2-0.1c0,0,0,0,0,0c0,0,0.1-0.1,0.3-0.2c-0.1,0.1-0.1,0.2-0.2,0.2c-0.1,0.1-0.1,0.1-0.1,0.2
				c0,0.1,0,0.1,0.1,0.1c0.1,0,0.3-0.1,0.6-0.3c-0.1,0.1-0.1,0.2-0.2,0.2c0,0,0,0,0,0.1c0,0,0,0.1,0,0.1c0,0,0,0.1,0.1,0.1
				c0,0,0.1,0,0.1,0c0.1,0,0.3-0.1,0.4-0.2c0,0,0.1-0.1,0.3-0.2c-0.1,0.2-0.2,0.3-0.2,0.3c0,0,0,0-0.1,0.1c0,0,0,0.1-0.1,0.1
				c0,0,0,0.1,0,0.1c0,0,0.1,0,0.1,0c0.1,0,0.1-0.1,0.1-0.1c0,0,0.1-0.1,0.2-0.2c0.1-0.1,0.1-0.1,0.2-0.1c0,0,0.1,0,0.1,0
				c0,0,0,0,0,0c0,0,0,0,0,0c-0.2,0.2-0.3,0.4-0.3,0.4c0,0.1,0,0.1,0.1,0.1c0,0,0.1,0,0.1,0c0,0,0.1,0,0.2-0.1
				c0.1,0,0.1-0.1,0.2-0.1c0,0,0,0,0,0c0,0,0,0,0.1,0c0,0,0,0-0.1,0c0,0,0,0,0,0.1c0,0,0,0,0,0.1c0,0.1,0,0.1,0,0.2c0,0,0,0,0.1,0
				c0.1,0,0.2,0,0.3-0.1c0,0.1,0,0.2,0.1,0.2c0.1,0,0.2,0,0.4-0.1c0.1-0.1,0.1-0.1,0.2-0.1c0,0,0,0,0,0c0.1-0.1,0.2-0.1,0.2-0.2
				c-0.1,0.1-0.2,0.2-0.2,0.3c0,0.1-0.1,0.1-0.1,0.2c0,0,0,0.1,0,0.1c0,0,0,0.1,0.1,0.1c0.1,0,0.1,0,0.3-0.1
				c0.1-0.1,0.2-0.1,0.3-0.2c0,0,0,0,0,0c0.1,0,0.1-0.1,0.2-0.2c-0.1,0.2-0.2,0.3-0.2,0.3c0,0,0,0-0.1,0.1c0,0,0,0.1-0.1,0.1
				c0,0.1,0,0.1,0,0.1c0,0,0.1,0,0.1,0c0.1,0,0.1-0.1,0.1-0.1c0,0,0.1-0.1,0.2-0.2c0.1-0.1,0.1-0.1,0.2-0.1c0,0,0.1,0,0.1,0
				c0,0,0,0,0,0c0,0,0,0,0,0c-0.2,0.2-0.3,0.4-0.3,0.4c0,0.1,0,0.1,0.1,0.1c0,0,0.1,0,0.1,0c0,0,0.1,0,0.2-0.1
				c0.1-0.1,0.1-0.1,0.2-0.1c0,0,0,0,0,0c0,0,0,0,0.1,0c0,0-0.1,0.1-0.1,0.2c0,0,0,0.1,0,0.1c0,0.1,0.1,0.1,0.1,0.1
				c0.1,0,0.1,0,0.2,0c0,0,0,0,0,0c-0.1,0-0.1,0-0.2,0c-0.1,0-0.2,0.1-0.2,0.1c-0.1,0-0.1,0.1-0.2,0.2c0,0.1,0,0.1,0,0.2
				c0,0,0.1,0.1,0.2,0.1c0,0,0.1,0,0.1,0c0.1,0,0.3-0.2,0.6-0.5C54.5,25.8,54.7,25.7,54.7,25.6c0.1,0.1,0.1,0,0.1,0
				C54.8,25.5,54.8,25.5,54.7,25.6C54.8,25.5,54.8,25.5,54.7,25.6z M46.9,23.6c0,0-0.1,0.1-0.1,0.1c-0.1,0.1-0.1,0.1-0.1,0.1
				c0,0,0,0,0,0c0,0,0-0.1,0.1-0.2c0.1-0.1,0.2-0.2,0.2-0.2c0,0,0,0,0,0.1C47,23.5,46.9,23.5,46.9,23.6z M47.4,24
				C47.4,24,47.4,24,47.4,24C47.4,24,47.4,24,47.4,24c0-0.1,0-0.1,0-0.1c0,0,0.1,0,0.1,0C47.5,24,47.5,24,47.4,24z M49.1,24.1
				C49,24.1,49,24.1,49.1,24.1c0,0.1,0,0.1,0,0.2c0,0.1-0.1,0.1-0.1,0.1c0,0,0,0,0,0c0,0,0,0,0-0.1C48.9,24.2,48.9,24.1,49.1,24.1
				c0.1-0.2,0.2-0.3,0.2-0.3c0,0,0,0,0,0.1c0,0.1-0.1,0.1-0.1,0.2C49.1,24,49.1,24,49.1,24.1z M51.9,24.8c-0.1,0.1-0.2,0.2-0.2,0.1
				c0,0,0,0,0-0.1c0,0,0.1-0.1,0.1-0.2c0.1-0.1,0.2-0.2,0.2-0.2c0,0,0,0,0,0.1C52.1,24.7,52,24.7,51.9,24.8z M53.8,26.2
				c0,0.1-0.1,0.1-0.1,0.1c0,0,0,0,0-0.1C53.7,26.2,53.7,26.2,53.8,26.2c0-0.1,0-0.2,0.2-0.2C53.9,26.1,53.9,26.1,53.8,26.2z
				 M54.2,25.6C54.2,25.6,54.2,25.6,54.2,25.6C54.1,25.5,54.1,25.5,54.2,25.6c0-0.1,0-0.2,0.1-0.3c0.1-0.1,0.2-0.2,0.2-0.1
				c0,0,0,0,0,0c0,0,0,0,0,0c0,0-0.1,0.1-0.1,0.2C54.3,25.5,54.2,25.6,54.2,25.6z"/>
			<path class="st1" d="M47.1,27.5C47.1,27.5,47,27.5,47.1,27.5C47,27.5,47,27.4,47.1,27.5C47,27.3,47,27.3,47,27.3
				c0-0.1,0-0.1,0-0.1c0,0,0,0,0-0.1c0,0,0,0,0.1,0c0,0,0,0,0,0c0,0,0,0,0.1,0c0,0,0,0,0-0.1c0-0.1,0-0.1-0.1-0.1c0,0-0.1,0-0.2,0
				c-0.1,0-0.1,0.1-0.2,0.1c-0.1,0.1-0.2,0.2-0.3,0.3c0,0,0,0,0,0c0,0,0,0,0,0c0,0-0.1,0.1-0.1,0.1c0,0-0.1,0.1-0.1,0.1c0,0,0,0,0,0
				c0,0,0-0.1,0-0.1c0.1-0.1,0.1-0.2,0.1-0.3c0-0.1,0-0.1,0-0.1c0,0,0-0.1,0-0.1c0-0.1-0.1-0.1-0.1-0.1c0,0,0,0-0.1,0.1
				c0,0,0,0,0,0.1c0,0-0.1,0-0.1,0c0,0-0.1,0-0.1,0c-0.1,0-0.1,0.1-0.2,0.1c0,0-0.1,0.1-0.1,0.1c-0.1,0.1-0.1,0.1-0.1,0.2
				c0,0,0,0,0,0.1c0,0,0,0,0,0c0,0,0,0-0.1,0.1c0,0.1-0.1,0.1-0.1,0.1c0,0,0,0,0,0c0,0,0,0,0-0.1c0.1-0.3,0.2-0.6,0.3-0.8
				c0,0,0-0.1,0-0.1c0,0,0,0,0-0.1c0,0,0-0.1,0-0.1c0,0,0,0-0.1-0.1c0,0-0.1,0.1-0.2,0.3c0,0.1-0.1,0.2-0.1,0.3
				c-0.1,0.1-0.1,0.2-0.1,0.3c0,0.1-0.1,0.1-0.1,0.1c0,0,0,0,0,0c0,0,0,0,0,0c0,0,0,0.1-0.1,0.1c0,0,0,0,0,0c0,0,0,0,0-0.1
				c0-0.1,0.1-0.3,0.1-0.4c0-0.1,0-0.1,0-0.1c0,0,0,0-0.1,0c0,0-0.1,0-0.1,0.1c0,0-0.1,0.1-0.1,0.1c-0.1,0.2-0.1,0.3-0.2,0.4
				c0,0,0,0.1-0.1,0.1c0,0,0,0,0,0c0,0,0,0,0-0.1c0-0.1,0.1-0.2,0.1-0.3c0,0,0,0,0-0.1c0,0,0-0.1,0-0.1c0-0.1-0.1-0.1-0.1-0.1
				c0,0,0,0,0,0c-0.1,0.2-0.2,0.4-0.3,0.5c0,0,0,0,0,0c0,0,0,0,0,0c0,0,0,0.1,0,0.1c0,0.1-0.1,0.1-0.1,0.1c0,0,0,0,0,0
				c0,0,0-0.1,0-0.3c0-0.1,0-0.2,0-0.3c0,0,0,0,0,0c0,0-0.1-0.1-0.1-0.1c0,0,0,0-0.1,0c0,0,0,0-0.1,0.1c-0.1,0.1-0.1,0.2-0.2,0.3
				c0-0.1,0-0.2,0-0.2c0,0,0,0,0,0c0,0-0.1-0.1-0.1-0.1c0,0,0,0-0.1,0c0,0,0,0-0.1,0.1c0,0-0.1,0.1-0.1,0.2c0,0-0.1,0.1-0.1,0.1
				c0-0.1,0-0.1,0-0.1c0,0,0-0.1,0-0.1c0,0,0,0-0.1-0.1c0,0,0,0-0.1,0c0,0-0.1,0.1-0.1,0.3c0,0.1-0.1,0.2-0.1,0.3c0,0,0,0,0,0
				c0,0,0,0,0,0c0,0.1,0,0.1-0.1,0.1c0,0,0,0,0,0c0,0,0,0,0-0.1c0-0.1,0-0.3,0-0.4c0,0,0-0.1,0-0.1c0,0,0-0.1,0-0.1c0,0,0,0,0,0
				c0,0,0,0-0.1,0c0,0,0,0-0.1,0.1c0,0-0.1,0.1-0.1,0c0,0,0-0.1,0-0.1c0,0,0,0,0-0.1c0,0,0,0-0.1,0c0,0-0.1,0.1-0.1,0.1
				c0,0,0,0.1,0,0.1c0,0,0,0.1,0.1,0.1c0,0.1,0,0.2,0,0.2c0,0,0,0.1,0,0.1c0,0,0,0,0,0c0,0.1,0,0.1-0.1,0.1c0,0,0,0,0,0
				c0-0.1,0-0.3,0-0.4c0,0,0,0,0-0.1c-0.1-0.1-0.1-0.1-0.2-0.1c0,0-0.1,0-0.1,0.1c-0.1,0.1-0.1,0.2-0.2,0.3c0,0.1,0,0.2-0.1,0.2
				c0,0,0,0,0,0c0,0.1-0.1,0.2-0.1,0.3c0,0,0,0,0,0c0-0.1,0-0.2,0-0.2c0-0.2,0-0.3,0-0.3c0.1-0.2,0.2-0.3,0.2-0.4c0-0.1,0-0.3,0-0.4
				c0-0.1-0.1-0.1-0.2-0.1c-0.1,0-0.2,0.2-0.2,0.4c0,0.2,0,0.4,0,0.6c0,0,0,0.1-0.1,0.1c-0.1,0.2-0.1,0.3-0.1,0.3c0,0,0,0,0,0
				c0,0,0,0,0,0c0,0,0,0,0,0c0,0,0,0,0-0.1c0,0,0-0.1,0-0.1c0,0,0.1-0.1,0.1-0.1c0,0.1,0,0.2,0,0.3c0,0,0,0-0.1,0c0,0-0.1,0-0.1,0.1
				c0,0,0,0,0,0.1c0,0,0.1,0.1,0.1,0.1c0,0.2-0.1,0.4-0.1,0.5c0,0,0,0,0,0.1c0,0,0,0.1,0,0.1c0,0,0,0,0,0c0,0,0.1,0,0.1,0
				c0.1,0,0.1-0.1,0.1-0.1c0-0.1,0.1-0.3,0.1-0.6c0,0,0.1-0.1,0.1-0.1c0.1-0.2,0.1-0.3,0.1-0.3c0,0,0,0,0,0c0,0,0,0,0,0
				c0,0,0,0.1,0,0.1c0,0.1,0.1,0.1,0.1,0.2c0,0,0.1,0,0.1,0c0.1,0,0.2-0.1,0.2-0.3c0,0,0,0,0.1,0c0.1,0,0.1-0.1,0.1-0.2c0,0,0,0,0,0
				c0-0.1,0.1-0.2,0.1-0.4c0,0,0.1,0,0.1,0c0,0,0,0.1,0,0.2c-0.1,0.2-0.1,0.3-0.1,0.4c0,0,0,0.1,0.1,0.1c0,0,0.1,0,0.1,0
				c0,0,0.1,0,0.1-0.1c0.1-0.1,0.1-0.2,0.2-0.4c0,0,0,0,0,0c0.1-0.1,0.1-0.2,0.1-0.3c0,0.2-0.1,0.3-0.1,0.4c0,0,0,0,0,0.1
				c0,0,0,0.1,0,0.1c0,0,0,0.1,0.1,0.1c0,0,0.1,0,0.1-0.1c0,0,0.1-0.1,0.1-0.1c0-0.1,0-0.1,0.1-0.3c0-0.1,0.1-0.2,0.1-0.2
				c0,0,0-0.1,0-0.1c0,0,0,0,0,0c0,0,0,0,0,0c0,0.1,0,0.2-0.1,0.3c0,0,0,0,0,0.1c0,0,0,0.1,0,0.1c0,0.1,0,0.1,0.1,0.1
				c0,0,0.1,0,0.1-0.1c0,0,0.1-0.1,0.1-0.1c0-0.1,0-0.1,0.1-0.3c0-0.1,0.1-0.2,0.1-0.2c0,0,0-0.1,0.1-0.1c0,0,0,0,0,0c0,0,0,0,0,0
				c0,0.1,0,0.2,0,0.2c0,0.1,0,0.2,0,0.3c0,0.1,0.1,0.1,0.1,0.1c0,0,0.1,0,0.1,0c0,0,0.1-0.1,0.1-0.2c0-0.1,0.1-0.1,0.1-0.2
				c0,0,0,0,0,0c0,0,0,0,0,0c0,0,0.1-0.1,0.2-0.3c0,0.1-0.1,0.2-0.1,0.3c0,0.1,0,0.2,0,0.2c0,0.1,0,0.1,0.1,0.1
				c0.1,0,0.2-0.2,0.4-0.5c0,0.1-0.1,0.2-0.1,0.3c0,0,0,0,0,0.1c0,0,0,0.1,0,0.1c0,0,0.1,0,0.1,0c0,0,0,0,0.1,0
				c0.1-0.1,0.2-0.2,0.3-0.3c0,0,0,0,0,0c0,0,0.1-0.1,0.2-0.3c-0.1,0.3-0.2,0.4-0.2,0.5c0,0,0,0,0,0c0,0.1,0.1,0.1,0.1,0.1
				c0,0,0.1,0,0.2-0.1c0,0,0.1-0.1,0.1-0.2c0,0,0-0.1,0.1-0.1c0,0,0,0,0,0c0,0.1,0,0.1,0,0.2c0,0,0,0.1,0,0.1c0,0,0.1,0.1,0.1,0.1
				c0,0,0.1,0,0.1,0c0,0,0.1-0.1,0.2-0.1c0,0,0,0,0,0.1c0,0,0,0.1,0,0.1c0,0,0,0,0.1,0c0,0,0.1,0,0.1,0c0,0,0.1-0.1,0.1-0.1
				c0.1-0.1,0.1-0.1,0.1-0.1c0,0,0,0,0,0c0,0,0,0,0,0c0,0,0.1-0.1,0.2-0.2c0.1-0.1,0.1-0.2,0.2-0.2c0,0,0,0.1,0,0.2
				c0,0.1,0,0.1,0,0.2c-0.1,0-0.1,0-0.1,0c0,0-0.1,0-0.1,0c0,0-0.1,0.1-0.1,0.1c0,0,0,0.1,0,0.1c0,0.1,0.1,0.1,0.2,0.1
				c0,0,0.1,0,0.1,0c0.1,0,0.1-0.1,0.2-0.2C47,27.6,47.1,27.6,47.1,27.5C47.1,27.5,47.2,27.5,47.1,27.5
				C47.2,27.5,47.1,27.4,47.1,27.5C47.1,27.4,47.1,27.5,47.1,27.5z M41.3,27.3C41.3,27.2,41.3,27.2,41.3,27.3
				C41.3,27.2,41.4,27.2,41.3,27.3c0.1,0,0.1,0,0.1,0c0,0,0,0.1,0,0.2c0,0.1,0,0.1,0,0.1c0,0,0,0,0,0.1
				C41.3,27.5,41.3,27.3,41.3,27.3z M41.9,28.1C41.9,28.1,41.9,28.1,41.9,28.1c0.1,0.2,0,0.2,0,0.2c0,0,0,0,0,0c0,0,0,0-0.1-0.1
				c0,0,0-0.1,0-0.3c0-0.2,0-0.3,0.1-0.3c0,0,0,0,0.1,0c0,0,0,0.1,0,0.2C41.9,27.9,41.9,28,41.9,28.1C41.9,28,41.9,28,41.9,28.1z
				 M46.1,27.3c0,0-0.1,0.1-0.1,0.1c0,0.1-0.1,0.1-0.1,0.1c0,0,0,0,0,0c0,0,0-0.1,0.1-0.2c0.1-0.1,0.1-0.2,0.2-0.2c0,0,0,0,0,0.1
				C46.2,27.2,46.2,27.2,46.1,27.3z M46.6,27.7C46.6,27.7,46.6,27.7,46.6,27.7C46.6,27.7,46.6,27.7,46.6,27.7c0-0.1,0-0.1,0-0.1
				c0,0,0.1,0,0.1,0C46.7,27.7,46.7,27.7,46.6,27.7z"/>
			<path class="st1" d="M48,27.1c0,0.1,0,0.1,0,0.2c0,0,0,0.1-0.1,0.2c-0.1,0.1-0.1,0.2-0.1,0.2c0,0,0,0,0,0c0,0,0,0,0.1-0.1
				c0.1-0.1,0.1-0.1,0.1-0.1c0,0,0,0,0,0c0.1-0.1,0.1-0.1,0.2-0.2c0.1-0.1,0.2-0.2,0.2-0.2c0,0,0,0,0,0.1c0,0,0,0.1,0,0.1
				c0,0.1,0,0.1,0,0.1c0,0,0,0.1-0.1,0.1c0,0,0.1-0.1,0.1-0.1c0.1-0.1,0.2-0.1,0.2-0.1c0,0,0.1,0,0.1,0c0,0,0.1,0,0.1,0
				c0,0,0.1,0,0.1,0.1c0,0,0,0,0,0c0,0,0,0.1-0.1,0.2c-0.1,0.2-0.2,0.3-0.2,0.3c0,0,0,0,0,0c0,0,0.1,0,0.1-0.1c0,0,0,0,0,0
				c0,0,0,0,0,0c0,0,0,0,0,0c0,0,0,0.1-0.1,0.1c0,0-0.1,0.1-0.2,0.1c-0.1,0.1-0.1,0.1-0.2,0.1c0,0-0.1,0-0.1,0
				c-0.1,0-0.1-0.1-0.1-0.1c0-0.1,0.1-0.2,0.2-0.4c0,0,0,0,0,0c0,0,0,0,0,0c0,0,0,0-0.1,0c0,0-0.1,0.1-0.2,0.1
				c-0.1,0.1-0.1,0.2-0.2,0.2c0,0-0.1,0.1-0.1,0.1c0,0-0.1,0-0.1,0c0,0-0.1,0,0-0.1c0,0,0-0.1,0-0.1c0-0.1,0.1-0.1,0.1-0.1
				c0,0,0.1-0.2,0.2-0.3c-0.1,0.1-0.2,0.2-0.2,0.2c0,0.1-0.1,0.1-0.2,0.2C47.7,28,47.6,28,47.6,28c0,0-0.1,0-0.1-0.1
				c0,0,0-0.1,0-0.1c0-0.1,0-0.1,0.1-0.2c0,0,0.1-0.1,0.2-0.3c-0.1,0.1-0.1,0.1-0.2,0.2c0,0,0,0,0,0c0,0,0,0,0-0.1
				c0,0,0.1-0.1,0.2-0.2c0-0.1,0.1-0.1,0.1-0.2C47.8,27.1,47.9,27.1,48,27.1C47.9,27.1,47.9,27.1,48,27.1
				C47.9,27.1,47.9,27.1,48,27.1"/>
			<path class="st1" d="M48,26.9c0,0,0-0.1,0-0.1c0-0.1,0-0.1,0.1-0.2c0,0,0.1-0.1,0.1-0.1c0,0,0.1,0,0.1,0.1c0,0,0,0.1,0,0.1
				c0,0.1,0,0.1-0.1,0.2C48.2,27,48.1,27,48,26.9C48.1,27,48,26.9,48,26.9"/>
			<path class="st1" d="M51.6,27.5C51.5,27.5,51.5,27.5,51.6,27.5c-0.1-0.1-0.1,0-0.3,0.2c0,0-0.1,0.1-0.2,0.2
				c-0.1,0.1-0.2,0.2-0.2,0.2c-0.1,0-0.1,0.1-0.1,0.1c0,0,0,0,0,0c0,0,0,0-0.1,0.1c-0.1,0-0.1,0.1-0.1,0.1c0,0,0,0,0,0
				c0,0,0,0,0-0.1c0.2-0.2,0.4-0.5,0.5-0.7c0,0,0-0.1,0-0.1c0,0,0,0,0-0.1c0,0,0-0.1,0-0.1c0,0,0-0.1,0-0.1c0,0-0.1,0.1-0.3,0.3
				c0,0-0.1,0.1-0.2,0.2c-0.1,0.1-0.2,0.2-0.2,0.2c-0.1,0-0.1,0.1-0.1,0.1c0,0,0,0,0,0c0,0,0,0,0,0c0,0-0.1,0.1-0.1,0.1
				c0,0-0.1,0-0.1,0c0,0,0,0,0,0c0,0,0-0.1,0.1-0.1c0.1-0.1,0.2-0.2,0.2-0.3c0-0.1,0.1-0.1,0.1-0.1c0,0,0-0.1,0-0.1
				c0-0.1,0-0.1-0.1-0.1c0,0-0.1,0-0.1,0.1c0,0,0,0-0.1,0.1c0,0-0.1-0.1-0.1-0.1c0,0-0.1,0-0.1,0c-0.1,0-0.1,0-0.2,0.1
				c0,0-0.1,0.1-0.1,0.1c-0.1,0.1-0.1,0.1-0.2,0.1c0,0,0,0-0.1,0c0,0,0,0,0,0c0,0,0,0.1,0,0.1c0,0,0,0,0,0c0,0-0.1,0.1-0.1,0.1
				c0,0,0,0.1,0,0.1c0,0,0,0.1,0.1,0.1c0,0,0.1,0,0.1,0c0,0,0.1-0.1,0.2-0.1c0,0,0,0,0,0.1c0,0,0,0.1,0,0.1c0,0,0,0,0.1,0
				c0,0,0.1,0,0.1,0c0,0,0.1,0,0.1-0.1c0.1,0,0.1-0.1,0.2-0.1c0,0,0,0,0,0c0,0,0,0,0,0c0,0,0.1-0.1,0.3-0.2
				c-0.2,0.2-0.3,0.4-0.3,0.5c0,0,0,0,0,0c0,0.1,0,0.1,0.1,0.1c0,0,0.1,0,0.2,0c0,0,0.1-0.1,0.2-0.1c0,0,0,0,0.1-0.1l0,0
				c0,0,0.1-0.1,0.3-0.2c-0.2,0.2-0.3,0.4-0.3,0.4c0,0,0,0,0,0c0,0.1,0,0.1,0.1,0.1c0,0,0.1,0,0.2,0c0,0,0.1-0.1,0.2-0.1
				c0,0,0.1-0.1,0.1-0.1c0,0,0,0,0,0c0,0,0,0,0,0c0,0,0,0-0.1,0.1c-0.1,0-0.1,0.1-0.1,0.1c0,0,0,0,0,0c0,0,0,0,0-0.1
				c0.2-0.2,0.4-0.5,0.5-0.7c0,0,0-0.1,0-0.1C51.6,27.7,51.6,27.6,51.6,27.5C51.6,27.6,51.6,27.5,51.6,27.5z M49.8,28
				c0,0-0.1,0.1-0.1,0.1c-0.1,0-0.1,0.1-0.1,0.1c0,0,0,0,0-0.1C49.5,28.1,49.6,28,49.8,28c0-0.2,0.1-0.3,0.1-0.3c0,0,0,0,0,0.1
				C49.9,27.8,49.9,27.9,49.8,28z"/>
			<path class="st1" d="M53.4,28c-0.1,0-0.2,0-0.4,0.2c-0.1,0.1-0.2,0.3-0.4,0.4c0,0-0.1,0-0.1,0c-0.2,0.1-0.2,0.1-0.3,0.1
				c0,0,0,0,0,0c0,0-0.1,0.1-0.1,0.1c0,0,0,0,0-0.1c0.1-0.1,0.2-0.2,0.2-0.3c0,0,0-0.1,0-0.1c0-0.1,0-0.2-0.1-0.2c0,0-0.1,0-0.1,0
				c-0.1,0-0.2,0.1-0.3,0.2c-0.1,0.1-0.2,0.1-0.2,0.2c0,0,0,0,0,0c0,0,0,0,0,0c0,0,0,0,0,0c0,0,0,0.1,0,0.1c0,0.1,0,0.1,0,0.2
				c0,0.1,0.1,0.1,0.1,0.1c0.1,0,0.2,0,0.4-0.1c0,0,0,0,0.1,0c0.1,0,0.1,0,0.2-0.1c0,0,0,0,0,0c0,0,0,0,0,0c0,0,0.1,0,0.1-0.1
				c0,0,0.1,0,0.1,0c-0.1,0.1-0.1,0.2-0.2,0.2c0,0,0,0,0,0c0,0-0.1,0-0.1,0.1c0,0,0,0,0,0.1c0,0.1,0,0.1,0,0.1
				c-0.2,0.2-0.3,0.3-0.3,0.3c0,0,0,0-0.1,0.1c0,0,0,0-0.1,0.1c0,0,0,0,0,0c0,0,0,0,0.1,0.1c0.1,0,0.1,0,0.2,0
				c0.1-0.1,0.3-0.2,0.4-0.4c0.1,0,0.1,0,0.2-0.1c0.2-0.1,0.3-0.2,0.3-0.2c0,0,0-0.1,0-0.1c0,0,0,0-0.1,0c-0.1,0.1-0.2,0.1-0.2,0.1
				c0,0-0.1,0-0.1,0c0.1-0.1,0.1-0.1,0.1-0.2c0.1-0.2,0.2-0.2,0.2-0.3c0.2-0.1,0.3-0.1,0.4-0.2c0.1-0.1,0.2-0.2,0.2-0.3
				C53.5,28.1,53.5,28,53.4,28z M51.9,28.7C51.9,28.7,51.9,28.7,51.9,28.7c0,0.1,0,0.1,0,0.2c-0.1,0.1-0.1,0.1-0.1,0.1c0,0,0,0,0,0
				c0,0,0,0,0-0.1C51.7,28.8,51.8,28.7,51.9,28.7c0.1-0.2,0.2-0.3,0.2-0.3c0,0,0,0,0,0.1c0,0-0.1,0.1-0.1,0.2
				C52,28.6,51.9,28.6,51.9,28.7z M53.3,28.3c0,0-0.1,0.1-0.1,0.1c-0.1,0-0.1,0.1-0.1,0.1c0,0,0,0-0.1,0
				C53.1,28.3,53.2,28.2,53.3,28.3c0-0.1,0-0.1,0-0.1C53.3,28.1,53.3,28.2,53.3,28.3C53.3,28.2,53.3,28.2,53.3,28.3z"/>
			<path class="st1" d="M51.4,32.2C51.4,32.2,51.4,32.2,51.4,32.2C51.5,32.2,51.5,32.2,51.4,32.2c0.1,0,0.1,0,0.2,0c0,0,0,0,0.1-0.1
				c0-0.1,0-0.1-0.1-0.2c0,0-0.1,0-0.2,0c-0.1,0-0.2,0.1-0.2,0.1c-0.2,0.1-0.3,0.2-0.4,0.2c0,0,0,0,0,0c0,0,0,0,0,0
				c0,0-0.1,0-0.1,0.1c0,0-0.1,0.1-0.2,0.1c-0.1,0-0.1,0-0.1,0c0,0-0.1-0.1,0-0.1c0-0.1,0.1-0.1,0.2-0.2c0.1-0.1,0.2-0.2,0.3-0.2
				c0,0,0,0,0,0c0,0-0.1,0-0.1,0c0,0,0,0,0,0.1c0,0.1,0,0.1,0.1,0.1c0,0,0.1,0,0.1,0c0,0,0.1-0.1,0.1-0.1c0,0,0-0.1,0-0.1
				c0,0,0,0,0-0.1c0,0-0.1,0-0.1-0.1c-0.1,0-0.2,0-0.3,0c-0.1,0-0.2,0.1-0.3,0.2C50.1,32,50,32,50,32c0,0,0,0,0,0c0,0-0.1,0-0.2,0.1
				c-0.1,0-0.1,0.1-0.1,0.1c0,0,0,0,0,0c0,0,0.1-0.1,0.1-0.2c0.1-0.1,0.1-0.2,0.1-0.2c0,0,0-0.1,0-0.2c0,0,0,0,0,0c0,0,0,0-0.1,0
				c0,0-0.1,0-0.1,0.1c-0.1,0.1-0.1,0.1-0.2,0.2c-0.1,0.1-0.1,0.1-0.2,0.1c0,0,0,0,0,0c0,0,0,0-0.1,0c-0.1,0-0.1,0.1-0.2,0.1
				c0,0,0,0,0,0c0,0,0,0,0,0c0,0,0,0,0-0.1c0,0,0.1-0.1,0.2-0.3c0,0,0.1-0.1,0.1-0.1c0,0,0,0,0.1,0c0,0,0,0,0.1,0c0,0,0,0,0.1,0l0,0
				c0,0,0,0,0,0c0,0,0,0-0.2-0.1c0,0,0,0,0,0c0,0,0-0.1,0.1-0.1c0,0,0-0.1,0-0.1c0,0,0,0,0-0.1c0,0,0,0,0,0c0,0,0,0-0.1,0
				c-0.1,0.1-0.2,0.2-0.2,0.2c0,0,0,0,0,0c-0.1,0-0.1,0-0.2,0c0,0,0,0,0,0c0,0,0,0.1,0,0.1c-0.1,0.1-0.3,0.2-0.4,0.3c0,0,0,0,0,0
				c0,0,0,0,0,0c0,0-0.1,0.1-0.1,0.1c-0.1,0-0.1,0-0.1,0c0,0,0,0,0,0c0,0,0-0.1,0.1-0.1c0.1-0.1,0.2-0.2,0.2-0.3
				c0-0.1,0.1-0.1,0.1-0.1c0,0,0-0.1,0-0.1c0-0.1-0.1-0.1-0.1-0.1c0,0-0.1,0-0.1,0.1c0,0,0,0-0.1,0.1c0,0-0.1-0.1-0.2-0.1
				c0,0-0.1,0-0.1,0c-0.1,0-0.2,0-0.2,0.1c0,0-0.1,0.1-0.1,0.1c-0.1,0.1-0.1,0.1-0.2,0.1c0,0,0,0,0,0c0,0,0,0,0,0c0,0,0,0,0,0
				c0,0,0,0,0,0c-0.1,0.1-0.1,0.1-0.2,0.1c0,0,0,0,0,0c0,0,0.1-0.1,0.2-0.3c0.1-0.1,0.1-0.2,0.1-0.2c0,0,0,0,0,0
				c0-0.1-0.1-0.1-0.1-0.1c0,0,0,0-0.1,0c0,0-0.1,0-0.1,0.1c-0.1,0.1-0.2,0.2-0.3,0.2c0.1-0.1,0.1-0.2,0.1-0.2c0,0,0,0,0,0
				c0-0.1-0.1-0.1-0.1-0.1c0,0,0,0-0.1,0c0,0-0.1,0-0.1,0.1c0,0-0.1,0.1-0.2,0.2c0,0-0.1,0.1-0.1,0.1c0-0.1,0.1-0.1,0.1-0.1
				c0,0,0-0.1,0-0.2c0,0,0-0.1,0-0.1c0,0,0,0-0.1-0.1c0,0-0.1,0.1-0.2,0.2c-0.1,0.1-0.2,0.2-0.3,0.3c0,0,0,0,0,0c0,0,0,0,0,0
				c0,0-0.1,0-0.1,0.1c0,0-0.1,0.1-0.1,0.1c-0.1,0-0.1,0.1-0.1,0.1c-0.1,0-0.1,0-0.1-0.1c0.1,0,0.3-0.1,0.4-0.3
				c0.1-0.1,0.1-0.2,0.1-0.2c0,0,0-0.1-0.1-0.1c0,0-0.1-0.1-0.1-0.1c-0.1,0-0.2,0-0.3,0.1c-0.1,0.1-0.2,0.1-0.2,0.2
				c0,0-0.1,0.1-0.1,0.1c0,0,0,0,0,0c0,0,0,0-0.1,0c0,0-0.1,0.1-0.1,0.1c0,0,0,0-0.1,0c0,0,0,0,0,0c0,0,0,0,0,0
				c0.1-0.2,0.1-0.4,0.2-0.4c0,0,0-0.1,0-0.1c0,0,0-0.1,0-0.1c0,0,0,0-0.1,0c-0.1,0-0.2,0.1-0.4,0.2c0-0.1,0.1-0.2,0.1-0.4
				c0-0.1,0.1-0.2,0.1-0.2c0,0,0,0,0,0c-0.1-0.1-0.1-0.2-0.1-0.2c0,0-0.1,0.1-0.1,0.2c0,0.1-0.1,0.1-0.1,0.2c0,0.1-0.1,0.2-0.1,0.3
				c-0.1,0.1-0.1,0.2-0.1,0.2c-0.1,0.1-0.1,0.2-0.2,0.2c0,0,0,0,0,0c0,0,0,0-0.1,0c-0.1,0.1-0.1,0.1-0.1,0.2c0,0,0,0,0,0
				c0,0,0,0,0,0c0,0,0,0,0-0.1c0,0,0-0.1,0.1-0.4c0,0,0-0.1,0.1-0.2c0,0,0,0,0.1,0c0,0,0,0,0.1,0c0,0,0,0,0.1,0l0-0.1c0,0,0,0,0,0
				c0,0-0.1,0-0.2,0c0,0,0,0,0,0c0,0,0-0.1,0-0.1c0,0,0-0.1,0-0.1c0,0,0,0-0.1-0.1c0,0,0,0-0.1,0c0,0,0,0,0,0
				c-0.1,0.2-0.1,0.3-0.1,0.3c0,0,0,0,0,0.1c-0.1,0-0.1,0-0.1,0.1c0,0,0,0,0,0c0,0,0,0,0.1,0c-0.1,0.2-0.2,0.3-0.2,0.4c0,0,0,0,0,0
				c0,0,0,0,0,0c0,0,0,0.1-0.1,0.1c0,0.1-0.1,0.1-0.1,0.1c0,0,0,0,0,0c0,0,0-0.1,0-0.1c0-0.2,0.1-0.3,0.1-0.4c0-0.1,0-0.1,0-0.1
				c0,0,0-0.1-0.1-0.1c-0.1,0-0.1-0.1-0.1,0c0,0,0,0-0.1,0.1c0,0,0,0,0,0.1c0,0-0.1,0-0.2,0c0,0-0.1,0-0.1,0c-0.1,0-0.1,0.1-0.2,0.2
				c0,0,0,0.1-0.1,0.2c0,0.1-0.1,0.2-0.1,0.2c0,0,0,0,0,0c0,0,0,0,0,0c0,0,0,0,0,0c0,0,0,0.1,0,0.1C42.2,32,42.2,32,42.2,32
				c0,0,0,0,0,0c0,0,0-0.1,0-0.3c0-0.1,0-0.2,0-0.3c0,0,0,0,0,0c0,0-0.1,0-0.1,0c0,0,0,0-0.1,0.1c0,0,0,0.1-0.1,0.1
				c-0.1,0.1-0.1,0.2-0.2,0.3c0-0.1,0-0.2,0-0.2c0,0,0,0,0,0c0,0-0.1,0-0.1,0c0,0,0,0-0.1,0.1c0,0,0,0.1-0.1,0.1
				c0,0-0.1,0.1-0.1,0.2c0,0-0.1,0.1-0.1,0.2c0-0.1,0-0.1,0-0.2c0,0,0-0.1,0-0.1c0,0,0,0-0.1-0.1c0,0-0.1,0-0.1,0
				c0,0-0.1,0.1-0.1,0.3c0,0.2-0.1,0.3-0.1,0.4c0,0,0,0,0,0c0,0,0,0,0,0c0,0,0,0,0,0c0-0.1,0.1-0.2,0.1-0.3c0,0.2,0,0.4,0,0.4
				c0,0,0,0,0,0.1c0,0,0,0.1,0,0.1c0,0.1,0,0.1,0.1,0.1c0,0,0.1,0,0.1-0.1c0,0,0.1-0.1,0.1-0.2c0-0.1,0-0.1,0.1-0.3
				c0-0.1,0.1-0.2,0.1-0.2c0,0,0-0.1,0.1-0.1c0,0,0,0,0,0c0,0,0,0,0,0c0,0.1,0,0.3-0.1,0.4c0,0,0,0,0,0.1c0,0,0,0.1,0,0.1
				c0,0,0,0.1,0.1,0.1c0,0,0.1,0,0.1-0.1c0,0,0.1-0.1,0.1-0.2c0-0.1,0-0.1,0.1-0.3c0-0.1,0.1-0.2,0.1-0.2c0,0,0-0.1,0.1-0.1
				c0,0,0,0,0,0c0,0,0,0,0,0c0,0.1,0,0.2,0,0.2c0,0.1,0,0.2,0,0.3c0,0.1,0.1,0.1,0.2,0.1c0,0,0.1,0,0.1-0.1c0,0,0.1-0.1,0.1-0.2
				c0-0.1,0.1-0.2,0.1-0.2c0,0,0,0,0,0c0,0.1,0,0.1,0,0.2c0,0.1,0,0.1,0.1,0.1c0,0,0.1,0,0.1,0c0,0,0.1,0,0.1-0.1
				c0,0,0.1-0.1,0.1-0.2c0,0,0,0.1,0,0.1c0,0,0,0.1,0.1,0.1c0,0,0.1,0,0.1,0c0,0,0.1,0,0.1-0.1c0,0,0.1-0.1,0.1-0.2
				c0.1-0.1,0.1-0.1,0.1-0.2c0,0,0,0,0-0.1c0,0,0,0,0,0c0.1-0.1,0.1-0.2,0.1-0.3c-0.1,0.2-0.1,0.4-0.1,0.5c0,0,0,0.1,0.1,0.1
				c0,0,0.1,0.1,0.1,0c0.1,0,0.1-0.1,0.3-0.2c0.1-0.1,0.1-0.2,0.2-0.2c0,0,0,0,0,0c0,0,0,0,0,0c0,0,0.1-0.1,0.1-0.2
				c0.1-0.1,0.1-0.2,0.1-0.3c0,0-0.1,0.2-0.2,0.4c-0.1,0.2-0.1,0.3-0.1,0.3c0,0.1,0,0.1,0.1,0.1c0,0,0,0,0,0c0.1,0,0.1-0.1,0.1-0.1
				c0.1-0.1,0.1-0.2,0.2-0.3c0.1-0.1,0.1-0.2,0.2-0.2c0,0,0,0,0,0c0,0,0,0.1,0,0.2c0,0.1,0,0.1,0,0.2c0,0.1,0,0.1,0.1,0.1
				c0,0,0,0,0,0c0,0,0.1,0,0.1-0.1c0.1,0,0.1-0.1,0.1-0.1c0.1-0.1,0.1-0.1,0.1-0.2c0,0,0,0,0,0c0,0,0,0,0.1-0.1c0,0,0,0,0,0.1
				c0,0,0,0,0,0.1c0,0,0,0.1,0,0.1c0,0.1,0.1,0.1,0.1,0.1c0,0,0.1,0,0.1,0c0.1,0,0.3-0.1,0.5-0.3c0.1-0.1,0.1-0.1,0.1-0.1
				c0,0,0,0,0,0c0.1-0.1,0.2-0.2,0.3-0.3c-0.1,0.2-0.2,0.3-0.2,0.4c0,0,0,0-0.1,0.1c0,0,0,0.1,0,0.1c0,0.1,0,0.1,0.1,0.1
				c0,0,0.1,0,0.1,0c0,0,0.1-0.1,0.1-0.1c0,0,0.1-0.1,0.2-0.2c0.1-0.1,0.1-0.1,0.2-0.2c0,0,0.1,0,0.1,0c0,0,0,0,0,0c0,0,0,0,0,0
				c-0.1,0.1-0.1,0.2-0.2,0.3c0,0,0,0-0.1,0.1c0,0,0,0.1,0,0.1c0,0.1,0,0.1,0.1,0.1c0,0,0.1,0,0.1,0c0,0,0.1-0.1,0.1-0.1
				c0,0,0.1-0.1,0.2-0.2c0.1-0.1,0.1-0.1,0.2-0.2c0,0,0.1,0,0.1,0c0,0,0,0,0,0c0,0,0,0,0,0c0,0.1-0.1,0.1-0.1,0.2
				C47,31.7,47,31.8,47,31.8c0,0.1,0,0.1,0.1,0.1c0,0,0.1,0,0.1,0c0,0,0.1-0.1,0.2-0.1c0.1-0.1,0.1-0.1,0.2-0.1c0,0,0,0,0,0
				c0,0.1-0.1,0.1-0.1,0.2s0,0.1,0,0.1c0,0,0.1,0.1,0.1,0.1c0,0,0.1,0,0.2,0c0.1,0,0.1-0.1,0.2-0.1c0,0,0,0,0,0.1c0,0,0,0.1,0,0.1
				c0,0,0,0,0.1,0c0,0,0.1,0,0.1,0c0,0,0.1,0,0.2-0.1c0.1-0.1,0.1-0.1,0.2-0.1c0,0,0,0,0,0c0,0,0,0,0,0c0.1-0.1,0.2-0.1,0.2-0.2
				c-0.2,0.2-0.2,0.3-0.3,0.4c0,0,0,0.1,0,0.1c0,0,0.1,0.1,0.1,0.1c0.1,0,0.2,0,0.3-0.1c0.1-0.1,0.2-0.1,0.3-0.2c0,0,0,0,0,0
				c0.1-0.1,0.2-0.1,0.2-0.2c-0.1,0.1-0.2,0.2-0.2,0.3c0,0.1-0.1,0.1-0.1,0.2c0,0,0,0.1,0,0.1c0,0,0,0.1,0.1,0.1
				c0.1,0,0.2,0,0.3-0.1c0.1-0.1,0.2-0.1,0.2-0.2c0,0,0,0,0.1,0c0,0,0,0-0.1,0c0,0,0,0,0,0.1c0,0,0,0.1,0,0.1c0,0.1,0,0.1,0.1,0.2
				c0,0,0.1,0.1,0.1,0.1c0.1,0,0.3,0,0.5-0.1c0.1,0,0.1-0.1,0.1-0.1c0,0,0,0,0,0c0,0,0.1-0.1,0.2-0.1c0.1-0.1,0.2-0.1,0.2-0.1
				c0,0-0.1,0.1-0.1,0.2c0,0.1,0,0.1-0.1,0.2c-0.1,0-0.1-0.1-0.1-0.1c0,0-0.1,0-0.1,0c-0.1,0-0.1,0-0.1,0.1c0,0,0,0.1,0,0.1
				c0,0.1,0.1,0.1,0.2,0.2c0.1,0,0.1,0,0.2,0c0.1,0,0.2-0.1,0.2-0.2c0.1,0,0.1,0,0.2,0c0,0,0,0,0.1,0c0,0,0,0,0-0.1c0,0,0,0-0.1,0
				c0,0-0.1,0-0.1,0c0,0,0-0.1,0-0.1c0-0.1,0-0.1,0-0.1C51.3,32.3,51.3,32.2,51.4,32.2C51.3,32.2,51.4,32.2,51.4,32.2z M45.7,31.2
				c0.1-0.1,0.1-0.1,0.1-0.1c0,0,0,0,0,0C45.9,31.1,45.9,31.2,45.7,31.2c0,0.1,0,0.2,0,0.2c0,0,0,0,0,0
				C45.7,31.3,45.7,31.3,45.7,31.2z M42.9,31.6c0,0,0,0.1-0.1,0.2c0,0.1-0.1,0.1-0.1,0.1c0,0,0,0,0,0c0,0,0-0.1,0.1-0.3
				c0.1-0.2,0.1-0.3,0.1-0.3c0,0,0,0,0,0C43,31.4,42.9,31.5,42.9,31.6z M48.2,31.6c0,0-0.1,0.1-0.1,0.1c-0.1,0-0.1,0.1-0.1,0.1
				c0,0,0,0,0-0.1c0,0,0.1-0.1,0.2-0.2c0.1-0.1,0.2-0.2,0.2-0.2c0,0,0,0,0,0.1C48.3,31.5,48.3,31.5,48.2,31.6z M50.8,32.6
				C50.8,32.6,50.8,32.6,50.8,32.6C50.8,32.6,50.8,32.6,50.8,32.6c0-0.1,0-0.1,0-0.1c0,0,0.1,0,0.1,0.1
				C50.9,32.6,50.9,32.7,50.8,32.6z"/>
			<path class="st1" d="M50.3,31.1C50.3,31.1,50.4,31.1,50.3,31.1c0.1,0.1,0.1,0.1,0.1,0.2c0,0.1-0.1,0.1-0.1,0.2
				c-0.1,0-0.1,0.1-0.2,0c0,0-0.1,0-0.1-0.1c0,0,0-0.1,0-0.1c0-0.1,0.1-0.1,0.1-0.2C50.2,31.1,50.2,31,50.3,31.1"/>
			<path class="st1" d="M51.4,33c-0.1,0-0.1-0.1-0.1-0.2c0,0,0-0.1,0.1-0.1c0.1,0,0.1-0.1,0.2,0c0,0,0.1,0,0.1,0.1c0,0,0,0.1,0,0.1
				c0,0,0,0.1-0.1,0.1C51.5,33,51.4,33.1,51.4,33"/>
			<path class="st1" d="M52.3,32.2C52.3,32.2,52.2,32.2,52.3,32.2C52.3,32.1,52.3,32.1,52.3,32.2c0-0.1,0.1-0.1,0.1-0.1
				c0,0,0,0,0.1,0c0,0,0,0,0-0.1c0,0,0-0.1,0-0.1c0,0,0-0.1,0.1-0.1c0,0,0.1,0,0.1,0c0,0,0.1,0,0.1,0.1c0,0,0,0.1,0,0.1
				c0,0.1-0.1,0.1-0.2,0.2c-0.1,0-0.1,0.1-0.2,0.1C52.4,32.2,52.3,32.2,52.3,32.2"/>
			<path class="st1" d="M52,32C52.1,32,52.1,32,52,32c0.1-0.1,0.1-0.1,0.1-0.1c0,0,0-0.1,0-0.1c0,0,0-0.1,0.1-0.1c0,0,0.1,0,0.1,0
				c0,0,0.1,0,0.1,0.1c0,0,0,0.1,0,0.1c0,0.1-0.1,0.1-0.2,0.2c-0.1,0-0.1,0.1-0.2,0.1c-0.1,0-0.1,0-0.1,0c0,0,0,0,0-0.1c0,0,0,0,0,0
				C52,32,52,32,52,32"/>
			<path class="st1" d="M22.5,28.1C22.5,28.1,22.5,28.1,22.5,28.1c0-0.1,0-0.1,0-0.2c0,0,0-0.1,0.1-0.1c0,0,0.1,0,0.1,0
				c0,0,0,0,0,0.1c0,0,0,0.1,0,0.1C22.6,28.1,22.6,28.1,22.5,28.1C22.6,28.1,22.5,28.1,22.5,28.1"/>
			<path class="st1" d="M22.5,28.3C22.5,28.2,22.5,28.2,22.5,28.3C22.5,28.2,22.5,28.2,22.5,28.3c0.1,0,0.1,0.1,0.1,0.1
				c0,0,0,0.1,0,0.2c0,0.1,0,0.1,0,0.2c0,0,0,0,0,0c0,0,0,0,0-0.1c0-0.1,0.1-0.1,0.1-0.1c0,0,0,0,0,0c0,0,0,0,0,0c0,0,0,0.1-0.1,0.2
				c-0.1,0.1-0.1,0.1-0.1,0.1c0,0,0,0-0.1,0c0,0,0,0,0,0c0,0,0-0.1,0-0.1c0,0,0-0.1,0-0.2c0,0.1,0,0.1-0.1,0.2c0,0,0,0,0,0
				c0,0,0,0,0,0c0,0,0-0.1,0.1-0.2C22.4,28.4,22.4,28.4,22.5,28.3C22.4,28.3,22.4,28.3,22.5,28.3"/>
			<path class="st1" d="M23.5,28.1L23.5,28.1l0,0.3c0,0,0,0.1,0,0.1c0,0.1,0,0.1,0.1,0.1c0,0,0,0,0.1-0.1l0.1,0c0,0.1,0,0.2-0.1,0.2
				c-0.1,0-0.2,0-0.2-0.2c0-0.1,0-0.1,0-0.5l-0.1,0l0,0.3c0,0.1,0,0.4-0.2,0.4c-0.1,0-0.1,0-0.1,0c0,0,0-0.1,0.1-0.1
				c0-0.1,0.1-0.1,0.1-0.2l0-0.3c-0.1,0-0.1,0-0.1,0.1l-0.1,0c0-0.1,0-0.2,0.1-0.2l0.4-0.1c0,0,0.1,0,0.1,0l0.1,0
				C23.6,27.9,23.6,28,23.5,28.1"/>
			<polygon class="st1" points="24,28.7 24.5,28.7 24.4,28.1 24.5,28.1 24.6,28.6 25.1,28.6 25.1,28.7 24.6,28.8 24.7,29.3 
				24.6,29.4 24.5,28.8 24,28.9 			"/>
			<path class="st1" d="M26.3,28.4c0,0.1-0.1,0.2-0.1,0.3c0,0.1,0,0.2-0.1,0.2c0,0.1-0.1,0.1-0.2,0.2c0,0-0.1,0-0.1,0
				c-0.1,0-0.1,0-0.1-0.1c0,0,0-0.2,0.1-0.5c0-0.1,0.1-0.3,0.2-0.5c0,0-0.1,0.1-0.2,0.1c-0.1,0.1-0.1,0.1-0.2,0.1c0,0-0.1,0-0.1,0
				c0,0,0,0,0-0.1c0,0,0-0.1,0.1-0.1c0,0,0.1-0.1,0.3-0.2c0.1-0.1,0.2-0.2,0.3-0.3c0,0,0,0,0.1,0c0,0,0.1,0,0.1,0c0,0,0,0,0,0.1
				c0,0,0,0.1,0,0.1c0,0-0.1,0.1-0.1,0.3C26.3,28.2,26.3,28.3,26.3,28.4"/>
			<polygon class="st1" points="27.2,28.8 27.2,28.6 28.2,28.6 28.2,28.7 			"/>
			<polygon class="st1" points="28.2,28.1 28.2,28.2 27.1,28.3 27.1,28.1 			"/>
			<g>
				<path class="st1" d="M22,29.3C22,29.3,22,29.3,22,29.3c0,0-0.1,0.1-0.1,0.2c0,0.1-0.1,0.1-0.1,0.2c-0.1,0.1-0.1,0.1-0.1,0.1
					c-0.1,0-0.1,0-0.1-0.1c0.1-0.1,0.2-0.2,0.3-0.4c0.1-0.1,0.1-0.2,0.1-0.3c0,0,0-0.1-0.1-0.1c0,0-0.1,0-0.2,0
					c-0.1,0-0.2,0.1-0.3,0.2c-0.1,0.1-0.1,0.2-0.2,0.3c-0.1,0.1-0.1,0.2-0.1,0.2c0,0,0,0.1,0,0.1c0,0,0,0,0,0c0,0,0,0,0,0
					c0,0,0,0,0.1-0.1c0,0,0,0.1,0,0.1c0,0,0,0,0,0.1c0,0,0,0.1,0.1,0.1c0,0.1,0.1,0.1,0.1,0.1c0,0,0.1,0,0.1,0
					c0.1,0,0.3-0.2,0.4-0.4C22,29.5,22.1,29.4,22,29.3C22.1,29.3,22.1,29.3,22,29.3C22,29.3,22,29.3,22,29.3z M21.6,29.2
					c0-0.1,0.1-0.2,0.1-0.2c0,0,0,0,0,0c0,0.1,0,0.1,0,0.2c-0.1,0.1-0.1,0.2-0.1,0.2c0,0,0,0,0,0C21.6,29.3,21.6,29.3,21.6,29.2z"/>
				<path class="st1" d="M29.9,27.6C29.9,27.6,29.9,27.6,29.9,27.6c-0.2,0-0.3,0-0.5,0.1c-0.1,0.1-0.3,0.2-0.3,0.4
					c-0.1,0.2-0.2,0.4-0.2,0.6c0,0.2,0,0.3,0.2,0.4c0,0,0.1,0,0.2,0.1c0.1,0,0.3-0.1,0.4-0.2c0.1-0.1,0.3-0.3,0.3-0.4
					c0.1-0.2,0.2-0.4,0.2-0.5C30.2,27.8,30.1,27.6,29.9,27.6z M29.8,28.4c-0.1,0.1-0.1,0.2-0.2,0.3c-0.1,0.1-0.2,0.2-0.3,0.2
					c-0.1,0-0.1-0.1-0.1-0.2c0-0.1,0.1-0.3,0.2-0.5c0.2-0.3,0.4-0.5,0.5-0.5c0,0,0,0,0.1,0c0,0,0.1,0.1,0.1,0.1
					C30,28,29.9,28.1,29.8,28.4z"/>
			</g>
			<path class="st1" d="M20,33.3c0-0.1,0-0.2,0-0.3c0-0.1,0-0.1,0.1-0.2c0-0.1,0.1-0.1,0.1-0.1c0,0,0.1,0,0.1,0c0,0,0,0,0,0
				c0,0,0,0-0.1,0.1c0,0,0,0.1,0,0.1c0,0,0,0,0.1,0.1c0,0,0.1,0.1,0.1,0.1c0,0.1,0,0.1,0,0.2c0,0.1,0,0.1-0.1,0.1
				C20.2,33.4,20.1,33.4,20,33.3C20,33.4,20,33.4,20,33.3"/>
			<path class="st1" d="M19.6,33.5c0-0.1,0-0.2,0-0.3c0-0.1,0-0.1,0.1-0.2c0-0.1,0.1-0.1,0.1-0.1c0,0,0.1,0,0.1,0c0,0,0,0,0,0
				c0,0,0,0-0.1,0.1c0,0,0,0.1,0,0.1c0,0,0,0,0.1,0.1c0,0,0.1,0.1,0.1,0.1c0,0.1,0,0.1,0,0.2c0,0.1,0,0.1-0.1,0.1
				C19.8,33.6,19.8,33.6,19.6,33.5C19.7,33.5,19.7,33.5,19.6,33.5"/>
			<path class="st1" d="M20.6,34c-0.1-0.3-0.1-0.6,0-0.9c0.1-0.3,0.3-0.5,0.5-0.7c0,0,0,0,0,0c0,0,0.1,0,0.1,0c0,0,0,0.1,0,0.1
				c-0.1,0.1-0.2,0.2-0.2,0.4c-0.1,0.3-0.1,0.6,0,0.8c0.1,0.3,0.2,0.4,0.4,0.3c0.1,0,0.2-0.2,0.3-0.5c0.1-0.3,0-0.5,0-0.7
				c0-0.1-0.1-0.2-0.2-0.2c-0.1,0-0.1,0.1-0.1,0.2c0,0.1,0,0.3,0,0.5c0.1,0.2,0.1,0.2,0.1,0.2c0,0,0,0,0,0c0,0,0,0,0,0c0,0,0,0,0,0
				c0,0,0,0.1,0,0.1c0,0,0,0,0,0.1c0,0-0.1,0-0.1,0c0,0-0.1-0.1-0.1-0.2c0-0.1,0-0.2,0-0.3c0-0.1,0-0.3,0-0.4c0-0.2,0.1-0.3,0.3-0.3
				c0.1,0,0.2,0,0.2,0.1c0,0.1,0.1,0.1,0.1,0.2c0,0.1,0,0.2,0,0.4c0,0.3,0,0.5-0.1,0.7c-0.1,0.3-0.3,0.4-0.5,0.5c-0.1,0-0.2,0-0.3,0
				C20.7,34.4,20.6,34.2,20.6,34"/>
			<g>
				<path class="st1" d="M26,31.2c-0.1,0-0.3,0.2-0.3,0.4c-0.1,0.2-0.1,0.4-0.1,0.6c0,0-0.1,0.1-0.1,0.1c-0.1,0.1-0.2,0.2-0.2,0.3
					c0,0,0,0,0,0c0,0.1,0,0.1-0.1,0.1c0,0,0-0.1,0-0.1c0-0.2,0-0.3,0-0.4c0,0,0-0.1,0-0.1c-0.1-0.1-0.1-0.1-0.2-0.1
					c0,0-0.1,0-0.1,0.1c-0.1,0.1-0.2,0.2-0.2,0.4c-0.1,0.1-0.1,0.2-0.1,0.3c0,0,0,0,0,0c0,0,0,0,0.1,0c0,0,0,0,0,0c0,0,0,0.1,0,0.1
					c0,0.1,0.1,0.1,0.1,0.2c0.1,0,0.1,0.1,0.2,0c0.1,0,0.3-0.2,0.3-0.4c0,0,0,0,0.1,0c0.1,0,0.1-0.1,0.2-0.2c0,0,0,0,0,0
					c0,0,0,0,0-0.1c0,0,0-0.1,0.1-0.1c0,0,0.1-0.1,0.1-0.1c0,0.2,0,0.2,0,0.3c0,0,0,0-0.1,0c0,0-0.1,0-0.1,0.1c0,0,0,0.1,0,0.1
					c0,0.1,0,0.1,0.1,0.1c-0.1,0.3-0.1,0.4-0.2,0.5c0,0,0,0-0.1,0.1c0,0,0,0.1,0,0.1c0,0,0,0,0,0c0,0,0.1,0,0.1,0
					c0.1,0,0.1-0.1,0.2-0.1c0.1-0.1,0.2-0.4,0.2-0.7c0.1,0,0.1-0.1,0.2-0.2c0.1-0.2,0.2-0.4,0.2-0.4c0,0,0-0.1,0-0.1
					c0,0-0.1,0-0.1,0c-0.1,0.1-0.1,0.2-0.2,0.3c0,0-0.1,0-0.1,0.1c0-0.1,0-0.2,0-0.3c0-0.2,0-0.3,0-0.4c0.2-0.2,0.3-0.3,0.3-0.4
					c0.1-0.2,0.1-0.3,0.1-0.4C26.2,31.2,26.1,31.2,26,31.2z M24.9,32.7c-0.1,0-0.1,0-0.1,0.1c0,0,0,0,0,0.1c0,0,0,0.1,0.1,0.1
					c0,0.1,0,0.1-0.1,0.2c0,0,0,0,0,0c0,0,0,0-0.1-0.1c0-0.1,0-0.2,0-0.3c0-0.2,0.1-0.3,0.1-0.3c0,0,0.1,0,0.1,0.1
					C24.9,32.4,24.9,32.5,24.9,32.7z M26,31.7c0,0.1-0.1,0.1-0.1,0.2c0,0,0,0-0.1,0.1c0-0.3,0.1-0.4,0.1-0.5c0,0,0-0.1,0.1-0.1
					c0,0,0,0,0,0.1c0,0,0,0,0,0.1C26,31.6,26,31.6,26,31.7z"/>
				<path class="st1" d="M23.8,33C23.8,33,23.8,33,23.8,33c0,0-0.1,0.1-0.1,0.2c0,0.1-0.1,0.1-0.1,0.2c0,0.1-0.1,0.1-0.1,0.1
					c-0.1,0-0.1,0-0.1-0.1c0.1-0.1,0.2-0.2,0.3-0.4c0.1-0.1,0.1-0.2,0-0.3c0,0,0-0.1-0.1-0.1c0,0-0.1,0-0.1,0
					c-0.1,0-0.2,0.1-0.3,0.2c-0.1,0.1-0.1,0.2-0.2,0.3c0,0.1-0.1,0.2-0.1,0.2c0,0,0,0,0,0c0,0,0,0,0,0.1c0,0,0,0.1,0,0.1
					c-0.1,0.1-0.1,0.1-0.1,0.2c0,0,0,0,0,0c0,0,0-0.2,0-0.4c0-0.2,0-0.3,0-0.3c0,0,0,0,0,0c0,0-0.1-0.1-0.1,0c0,0,0,0-0.1,0.1
					c0,0,0,0.1-0.1,0.1c0,0-0.1,0.1-0.1,0.3c0,0.1-0.1,0.1-0.1,0.2c0-0.1,0-0.1,0-0.2c0-0.1,0-0.1,0-0.2c0,0,0,0-0.1-0.1
					c0,0-0.1,0-0.1,0c0,0-0.1,0.1-0.1,0.3c-0.1,0.2-0.1,0.3-0.1,0.5c0,0,0,0,0,0.1c0,0,0,0,0,0c0,0,0.1-0.1,0.2-0.4
					c0,0.2,0,0.4-0.1,0.5c0,0,0,0,0,0.1c0,0,0,0.1,0,0.1c0,0.1,0,0.1,0.1,0.1c0,0,0.1,0,0.1-0.1c0-0.1,0.1-0.1,0.1-0.2
					c0-0.1,0-0.2,0.1-0.3c0-0.1,0.1-0.2,0.1-0.2c0,0,0-0.1,0.1-0.1c0,0,0,0,0,0c0,0,0,0,0,0c0,0.3-0.1,0.5,0,0.6
					c0,0.1,0.1,0.1,0.2,0.1c0,0,0.1,0,0.1-0.1c0,0,0.1-0.1,0.1-0.2c0.1-0.1,0.1-0.2,0.1-0.2c0,0,0,0,0,0c0,0,0,0,0,0
					c0,0,0,0,0.1-0.1c0,0,0,0.1,0,0.1c0,0,0,0,0,0.1c0,0,0,0.1,0.1,0.1c0,0.1,0.1,0.1,0.1,0.1c0,0,0.1,0,0.1,0
					c0.1,0,0.3-0.2,0.4-0.4C23.9,33.2,23.9,33.1,23.8,33C23.9,33,23.9,33,23.8,33C23.8,33,23.8,33,23.8,33z M23.4,32.9
					c0-0.1,0.1-0.2,0.1-0.2c0,0,0,0,0,0c0,0.1,0,0.1,0,0.2c0,0.1-0.1,0.2-0.1,0.2c0,0,0,0,0,0C23.4,33,23.4,33,23.4,32.9z"/>
				<path class="st1" d="M29.3,32C29.3,32,29.2,32,29.3,32c0,0-0.1,0.1-0.1,0.1c0,0.1-0.1,0.1-0.1,0.1c-0.1,0-0.1,0.1-0.1,0.1
					c-0.1,0-0.1,0-0.1-0.1c0.1-0.1,0.3-0.2,0.4-0.3c0.1-0.1,0.1-0.2,0.1-0.3c0-0.1,0-0.1-0.1-0.1c0,0-0.1-0.1-0.1,0
					c-0.1,0-0.2,0.1-0.3,0.2c-0.1,0.1-0.1,0.2-0.2,0.3c0,0.1-0.1,0.1-0.1,0.1c0,0,0,0,0,0c0,0,0,0-0.1,0.1c0,0.1-0.1,0.1-0.1,0.2
					c0,0,0,0-0.1,0c0,0,0,0,0,0c0,0,0,0,0-0.1c0.1-0.3,0.1-0.4,0.1-0.5c0,0,0-0.1,0-0.1c0,0,0-0.1,0-0.1c0,0,0,0-0.1,0
					c-0.1,0-0.2,0.1-0.4,0.3c0-0.1,0.1-0.2,0.1-0.4c0-0.1,0.1-0.2,0-0.2c0,0,0,0,0,0c-0.1-0.2-0.1-0.2-0.2-0.2c0,0-0.1,0.1-0.1,0.2
					c0,0.1,0,0.2-0.1,0.2c0,0.1-0.1,0.2-0.1,0.3c-0.1,0.1-0.1,0.2-0.1,0.3c-0.1,0.1-0.1,0.2-0.1,0.3c0,0,0,0,0,0c0,0,0,0-0.1,0
					c-0.1,0.1-0.1,0.1-0.1,0.2c0,0,0,0,0,0c0,0,0,0,0,0c0,0,0,0,0-0.1c0,0,0-0.1,0.1-0.4c0,0,0-0.1,0.1-0.2c0,0,0,0,0.1,0
					c0,0,0,0,0.1,0c0,0,0,0,0.1,0l0-0.1c0,0,0,0,0,0c0,0-0.1,0-0.2,0c0,0,0-0.1,0-0.1c0,0,0-0.1,0-0.1c0,0,0-0.1,0-0.1
					c0,0,0,0-0.1-0.1c0,0,0,0-0.1,0c0,0,0,0,0,0.1c-0.1,0.2-0.1,0.3-0.1,0.3c0,0,0,0,0,0.1c-0.1,0-0.1,0-0.1,0.1c0,0,0,0,0,0
					c0,0,0,0.1,0.1,0c-0.1,0.2-0.2,0.4-0.3,0.5c0,0,0,0.1,0,0.1c0,0,0,0,0.1,0c0.1-0.1,0.1-0.2,0.1-0.3c-0.1,0.2-0.1,0.4-0.1,0.5
					c0,0,0,0.1,0.1,0.1c0,0,0.1,0.1,0.1,0c0.1,0,0.2-0.1,0.3-0.2c0.1-0.1,0.1-0.2,0.2-0.3c0,0,0,0,0,0c0,0,0,0,0,0
					c0,0,0.1-0.1,0.1-0.2c0.1-0.1,0.1-0.2,0.1-0.3c0,0-0.1,0.2-0.1,0.5c-0.1,0.2-0.1,0.3-0.1,0.3c0,0.1,0.1,0.1,0.1,0.1c0,0,0,0,0,0
					c0.1,0,0.1-0.1,0.1-0.1c0.1-0.1,0.1-0.2,0.2-0.4c0.1-0.1,0.1-0.2,0.1-0.2c0,0,0,0,0,0c0,0,0,0.1,0,0.2c0,0.1,0,0.2,0,0.2
					c0,0.1,0.1,0.1,0.1,0.1c0,0,0,0,0,0c0,0,0.1,0,0.1-0.1c0.1-0.1,0.1-0.1,0.1-0.2c0.1-0.1,0.1-0.2,0.1-0.2c0,0,0,0,0,0
					c0,0,0,0,0.1-0.1c0,0,0,0,0,0.1c0,0,0,0,0,0.1c0,0,0,0.1,0,0.1c0,0.1,0.1,0.1,0.1,0.1c0,0,0.1,0,0.1,0c0.1,0,0.3-0.1,0.5-0.3
					C29.3,32.2,29.3,32.1,29.3,32C29.3,32,29.3,32,29.3,32C29.3,32,29.3,32,29.3,32z M28.9,31.8c0.1-0.1,0.1-0.2,0.1-0.2
					c0,0,0,0,0,0c0,0.1,0,0.1,0,0.2C29,31.9,28.9,32,28.9,32c0,0,0,0,0,0C28.9,31.9,28.9,31.9,28.9,31.8z"/>
				<path class="st1" d="M34,32C34,32,34,32,34,32c0.1-0.1,0.1-0.1,0.1-0.2c0,0,0-0.1,0-0.1c0,0,0-0.1,0-0.1c0,0,0-0.1,0-0.1
					c0,0,0,0-0.1,0c-0.1,0.2-0.2,0.2-0.2,0.3c0,0,0,0,0,0c-0.1,0-0.1,0-0.2,0c0,0,0,0,0,0c0,0,0,0.1,0.1,0.1
					c-0.2,0.1-0.3,0.2-0.4,0.3c0,0,0,0,0,0c0,0,0,0-0.1,0c0,0-0.1,0-0.1,0.1c0,0,0-0.1,0-0.1c0-0.1,0-0.1,0-0.1c0-0.1,0-0.1,0-0.1
					c0,0,0,0,0-0.1c0,0,0,0,0.1,0c0,0,0,0,0,0c0,0,0.1,0,0.1,0c0,0,0,0,0.1-0.1c0-0.1,0-0.1-0.1-0.2c-0.1,0-0.1,0-0.2,0
					c-0.1,0-0.2,0.1-0.2,0.1c-0.2,0.1-0.3,0.2-0.3,0.3c0,0,0,0,0,0c0,0.1-0.1,0.1-0.1,0.1c0,0,0-0.1,0-0.1c0.1-0.1,0.1-0.3,0.2-0.4
					c0,0,0-0.1,0-0.1c0-0.1-0.1-0.2-0.2-0.2c0,0-0.1,0-0.2,0c-0.1,0-0.2,0.1-0.4,0.3c-0.1,0.1-0.1,0.1-0.2,0.2c0,0,0,0,0,0
					c0,0,0,0-0.1,0c0,0,0,0.1,0,0.1c-0.1,0.1-0.1,0.1-0.2,0.1c0,0,0,0,0,0c0,0,0.1-0.2,0.2-0.3c0.1-0.1,0.1-0.2,0.1-0.3c0,0,0,0,0,0
					c0-0.1-0.1-0.1-0.1-0.1c0,0-0.1,0-0.1,0c0,0-0.1,0-0.1,0.1c-0.1,0.1-0.2,0.2-0.3,0.2c0.1-0.1,0.1-0.2,0.1-0.2c0,0,0,0,0,0
					c0-0.1-0.1-0.1-0.1-0.1c0,0-0.1,0-0.1,0c0,0-0.1,0-0.1,0.1c0,0-0.1,0.1-0.2,0.2c0,0-0.1,0.1-0.1,0.1c0-0.1,0.1-0.1,0.1-0.1
					c0,0,0-0.1,0-0.2c0,0,0-0.1,0-0.1c0,0,0-0.1-0.1-0.1c0,0-0.1,0.1-0.2,0.2c-0.1,0.2-0.2,0.3-0.3,0.4c0,0,0,0,0,0c0,0,0,0,0,0
					c0,0,0,0,0,0c0.1-0.1,0.2-0.2,0.3-0.3c-0.1,0.2-0.2,0.4-0.2,0.4c0,0,0,0-0.1,0.1c0,0,0,0.1,0,0.1c0,0.1,0,0.1,0.1,0.1
					c0,0,0.1,0,0.1-0.1c0.1,0,0.1-0.1,0.1-0.1c0-0.1,0.1-0.1,0.2-0.2c0.1-0.1,0.1-0.2,0.2-0.2c0,0,0.1,0,0.1,0c0,0,0,0,0,0
					c0,0,0,0,0,0c-0.1,0.1-0.1,0.2-0.2,0.4c0,0,0,0-0.1,0.1c0,0,0,0.1,0,0.1c0,0.1,0,0.1,0.1,0.1c0,0,0.1,0,0.1-0.1
					c0.1,0,0.1-0.1,0.1-0.1c0-0.1,0.1-0.1,0.2-0.2c0.1-0.1,0.1-0.2,0.2-0.2c0,0,0.1-0.1,0.1,0c0,0,0,0,0,0c0,0,0,0,0,0
					c0,0.1-0.1,0.2-0.1,0.2c-0.1,0.1-0.1,0.2-0.1,0.3c0,0.1,0,0.1,0.1,0.1c0,0,0.1,0,0.1,0c0,0,0.1-0.1,0.2-0.1
					c0.1-0.1,0.2-0.1,0.2-0.2c0,0,0,0,0,0c0,0,0,0,0,0c0,0,0,0,0,0c0,0,0,0.1,0,0.1c0,0.1,0,0.2,0,0.2c0,0.1,0.1,0.1,0.2,0.1
					c0.1,0,0.3-0.1,0.4-0.2c0,0,0,0,0.1,0c0.1,0,0.2,0,0.2-0.1c0,0,0,0,0,0c0,0,0.1-0.1,0.2-0.2c0.1-0.1,0.2-0.2,0.2-0.2
					c0,0,0,0.1-0.1,0.2c0,0.1,0,0.2,0,0.2c-0.1,0-0.1,0-0.1,0c0,0-0.1,0-0.1,0c-0.1,0-0.1,0.1-0.1,0.1c0,0,0,0.1,0,0.1
					c0,0.1,0.1,0.1,0.2,0.2c0.1,0,0.1,0,0.2,0c0.1,0,0.2-0.1,0.2-0.2c0.1,0,0.1,0,0.2-0.1c0,0,0,0,0,0c0.1-0.1,0.2-0.2,0.3-0.2
					c-0.2,0.2-0.3,0.3-0.3,0.4c0,0,0,0.1,0,0.1c0,0.1,0.1,0.1,0.1,0.1c0.1,0,0.2,0,0.3-0.1c0.1-0.1,0.2-0.1,0.3-0.2c0,0,0,0,0.1-0.1
					c0,0,0,0,0-0.1c0,0,0,0-0.1,0c-0.1,0.1-0.2,0.1-0.2,0.1c0,0,0,0-0.1,0c0,0,0,0,0,0c0,0,0-0.1,0-0.1c0,0,0.1-0.1,0.2-0.3
					c0,0,0.1-0.1,0.1-0.2c0,0,0,0,0.1,0c0,0,0,0,0.1,0c0,0,0,0,0.1,0l0-0.1c0,0,0,0,0,0C34.1,32,34.1,32,34,32z M32.1,32.1
					c-0.1,0-0.1,0-0.1,0c0,0,0,0,0,0.1c0,0,0,0.1,0,0.1c0,0.1-0.1,0.1-0.1,0.1c0,0,0,0,0,0c0,0,0,0,0-0.1c0-0.1,0.1-0.2,0.2-0.3
					c0.1-0.2,0.2-0.3,0.3-0.3c0,0,0.1,0,0,0.1C32.2,31.9,32.1,32,32.1,32.1z M32.5,32.6C32.5,32.6,32.5,32.6,32.5,32.6
					C32.5,32.6,32.5,32.5,32.5,32.6c0-0.1,0-0.1,0-0.1c0,0,0.1,0,0.2,0C32.6,32.6,32.6,32.6,32.5,32.6z"/>
			</g>
		</g>
	</g>
</g>
</svg>
